<?xml version="1.0" standalone="no"?>
<!DOCTYPE svg PUBLIC "-//W3C//DTD SVG 20010904//EN"
 "http://www.w3.org/TR/2001/REC-SVG-20010904/DTD/svg10.dtd">
<svg version="1.0" xmlns="http://www.w3.org/2000/svg"
 width="1024.000000pt" height="683.000000pt" viewBox="0 0 1024.000000 683.000000"
 preserveAspectRatio="xMidYMid meet">

<g transform="translate(0.000000,683.000000) scale(0.100000,-0.100000)"
fill="#000000" stroke="none">
<path d="M186 6725 c108 -262 219 -703 217 -860 -1 -59 -16 -275 -22 -318 0
-5 -5 -5 -11 -2 -5 3 -10 -3 -10 -14 0 -13 -7 -21 -17 -22 -15 0 -15 -2 2 -9
19 -8 19 -9 -2 -9 -13 -1 -23 4 -23 10 0 8 -4 8 -14 0 -10 -9 -19 -7 -37 9
-13 10 -21 19 -16 20 4 0 -2 9 -13 20 -11 11 -20 29 -20 40 0 11 -4 20 -10 20
-5 0 -10 6 -10 14 0 7 -7 19 -15 26 -8 7 -13 15 -11 19 2 3 -21 31 -51 61 -33
33 -68 83 -89 125 l-34 69 0 -2632 0 -2632 27 6 c22 4 25 3 13 -5 -12 -9 -9
-10 13 -5 16 4 33 1 41 -5 9 -8 30 -10 55 -6 26 4 41 2 41 -5 0 -5 6 -10 14
-10 8 0 17 -7 20 -16 5 -13 17 -15 67 -10 64 6 102 27 92 52 -3 8 0 14 6 14 6
0 9 6 7 13 -1 6 -1 9 1 5 10 -17 23 -7 23 17 0 26 24 35 34 13 2 -7 4 2 3 20
-1 22 -7 34 -20 38 -16 5 -17 8 -6 15 11 7 11 9 1 9 -7 0 -11 4 -7 9 3 5 1 13
-5 16 -6 4 -8 15 -5 25 3 10 1 21 -5 25 -7 4 -7 12 0 25 5 10 8 31 6 47 -2 15
-1 20 1 10 2 -9 9 -17 14 -17 6 0 7 -5 4 -10 -4 -7 2 -9 17 -5 18 5 25 2 25
-9 0 -8 -4 -13 -9 -10 -4 3 -8 1 -8 -5 0 -17 25 -18 37 -2 8 10 7 3 -2 -21
-11 -27 -12 -39 -3 -44 6 -4 8 -3 5 3 -4 6 0 14 9 17 24 9 24 8 7 -26 -15 -29
-15 -32 2 -44 17 -12 17 -15 1 -39 -9 -14 -22 -25 -29 -25 -8 0 -7 -4 3 -10
13 -8 13 -10 -1 -10 -9 0 -19 -9 -22 -20 -3 -11 0 -18 7 -17 6 1 11 -10 10
-25 0 -17 5 -28 14 -28 7 0 11 -4 8 -8 -3 -5 2 -21 9 -36 8 -16 12 -33 9 -38
-4 -6 3 -8 17 -4 13 3 18 3 11 0 -6 -3 -12 -10 -12 -16 0 -14 452 2 760 27 30
2 178 7 328 11 213 6 281 4 312 -6 22 -7 40 -16 41 -19 0 -3 2 -14 4 -23 2
-14 -3 -18 -23 -18 -15 0 -34 -5 -42 -10 -11 -7 -1 -10 35 -11 46 -2 43 -3
-30 -13 -44 -6 -86 -15 -92 -19 -7 -5 -17 -6 -22 -3 -5 4 -11 2 -13 -3 -3 -10
-81 -26 -198 -42 -38 -5 -20 -6 55 -3 280 10 600 9 598 -2 -1 -7 23 -14 60
-19 52 -6 58 -9 38 -16 -30 -12 -22 -20 21 -24 18 -2 40 -3 48 -4 10 -1 7 -6
-9 -15 -23 -13 -23 -14 -5 -25 16 -10 16 -12 1 -7 -9 3 -17 1 -17 -4 0 -6 -6
-10 -14 -10 -8 0 -13 7 -12 16 0 9 -4 19 -10 21 -7 2 -11 -4 -10 -14 1 -15 -7
-18 -44 -20 -100 -4 -248 -12 -295 -17 -27 -2 -108 -7 -180 -10 -71 -4 -141
-9 -155 -11 -24 -4 -109 -10 -310 -21 -52 -3 -120 -7 -150 -9 -408 -29 -658
-33 -710 -11 -22 9 -37 36 -45 83 -6 39 -4 43 22 57 21 12 24 15 9 16 -11 0
-16 5 -13 13 3 9 -6 13 -29 14 -19 1 -34 -3 -34 -8 0 -5 -7 -9 -15 -9 -8 0
-15 -5 -15 -10 0 -6 -6 -10 -12 -9 -18 3 -68 -22 -68 -34 0 -6 -2 -8 -5 -5 -7
6 -78 -7 -110 -21 -47 -19 -85 -29 -79 -20 3 6 -5 7 -23 2 -15 -4 -40 -8 -55
-8 l-28 0 0 -118 0 -117 3628 2 3627 3 295 136 c297 137 631 294 1055 496 380
182 841 398 1195 561 96 44 234 108 305 141 l130 61 3 2715 2 2715 -27 0 c-16
0 -33 -4 -39 -8 -11 -7 -29 -51 -26 -63 1 -4 -8 -5 -19 -2 -15 4 -20 12 -16
29 2 13 -1 22 -7 21 -6 -1 -10 3 -9 10 3 14 -53 -2 -63 -18 -3 -5 -14 -9 -26
-9 -15 0 -19 5 -15 20 5 19 0 20 -189 20 -180 0 -195 -1 -206 -19 -9 -15 -17
-17 -35 -10 -13 5 -23 5 -23 1 0 -4 -5 1 -11 11 -9 16 -45 17 -523 17 l-512 0
-34 -25 c-19 -14 -29 -25 -22 -25 8 0 9 -7 2 -26 -6 -14 -7 -30 -4 -36 3 -5
-3 -4 -15 4 -12 7 -21 19 -21 27 0 8 -3 12 -6 8 -4 -3 -24 12 -44 33 l-38 40
-1717 0 -1717 0 -156 -35 c-237 -54 -607 -146 -1002 -250 -397 -105 -600 -163
-1490 -425 -345 -101 -766 -208 -875 -221 -100 -12 -142 -3 -179 42 -38 44
-94 169 -180 399 -43 113 -84 219 -92 237 -8 17 -14 33 -14 36 0 3 -5 18 -12
34 -6 15 -23 62 -37 103 l-26 75 -336 3 -337 2 44 -105z m8274 14 c0 -11 -4
-18 -10 -14 -5 3 -7 12 -3 20 7 21 13 19 13 -6z m8 -54 c-3 -3 -9 2 -12 12 -6
14 -5 15 5 6 7 -7 10 -15 7 -18z m1530 -3 c-21 -4 -24 -18 -5 -25 7 -3 5 -6
-5 -6 -10 -1 -18 -9 -18 -18 0 -15 2 -15 9 -4 7 10 9 8 9 -10 0 -13 1 -38 3
-56 2 -35 -22 -68 -39 -51 -6 6 -12 6 -17 -3 -5 -8 -4 -10 3 -5 7 4 12 4 12
-1 -1 -14 -92 -64 -106 -59 -8 3 -13 0 -11 -7 1 -7 -7 -12 -18 -12 -11 0 -23
-4 -27 -10 -5 -6 -12 -4 -18 5 -6 10 -10 11 -10 3 0 -7 -7 -13 -15 -13 -8 0
-15 -5 -15 -12 0 -6 -3 -8 -7 -5 -3 4 -12 2 -20 -4 -7 -6 -13 -8 -13 -4 0 4
-7 2 -15 -5 -8 -6 -20 -8 -26 -4 -9 5 -10 2 -6 -12 7 -18 7 -18 -8 0 -15 19
-15 19 -15 1 0 -15 -3 -16 -12 -7 -7 7 -20 12 -31 12 -10 0 -15 5 -12 10 3 6
1 10 -4 10 -6 0 -11 -4 -11 -10 0 -5 -7 -10 -15 -10 -21 0 -19 16 3 24 59 21
82 28 124 35 26 4 45 4 42 -1 -3 -4 0 -8 5 -8 6 0 11 5 11 10 0 6 5 10 11 10
5 0 7 -6 3 -12 -4 -7 11 7 34 32 23 24 42 41 42 37 0 -4 9 2 20 13 11 11 24
20 30 20 5 0 7 7 3 16 -3 8 -12 13 -19 10 -8 -3 -14 1 -14 9 0 8 5 15 10 15 6
0 10 5 10 11 0 5 -4 7 -10 4 -20 -12 -9 4 28 43 41 44 77 66 92 57 6 -3 10 -1
10 5 0 7 7 7 23 -2 19 -10 20 -13 5 -16z m27 -60 c-3 -3 -11 0 -18 7 -9 10 -8
11 6 5 10 -3 15 -9 12 -12z m-1065 -188 c30 -9 82 -15 119 -14 140 5 255 -1
289 -15 19 -8 45 -15 58 -15 32 0 37 -13 14 -37 -10 -12 -16 -25 -12 -29 4 -5
3 -6 -1 -2 -5 3 -24 0 -44 -8 -60 -25 -186 -17 -353 23 -67 16 -140 50 -140
65 0 5 -4 7 -9 4 -5 -3 -11 1 -15 9 -3 9 0 15 10 15 8 0 12 5 9 10 -9 14 13
12 75 -6z m-1855 -61 c17 -9 51 -29 78 -46 41 -26 47 -35 47 -64 0 -18 -4 -33
-8 -33 -4 0 -8 -10 -9 -21 -3 -33 -17 -43 -43 -29 -31 16 -36 6 -22 -45 12
-47 16 -135 6 -135 -3 0 -17 9 -31 20 -33 26 -43 18 -36 -26 4 -23 2 -39 -6
-43 -26 -16 104 -139 135 -127 19 7 33 -24 23 -52 -8 -21 -10 -22 -25 -8 -8 9
-25 16 -36 16 -11 0 -27 8 -35 18 -8 9 -12 11 -8 5 3 -7 1 -13 -5 -13 -15 0
18 -31 68 -63 23 -15 42 -29 42 -31 0 -2 -11 -3 -25 -3 -15 0 -33 10 -45 24
-19 24 -19 24 -47 6 -15 -10 -33 -24 -39 -32 -10 -13 -17 -13 -38 -3 -33 15
-66 16 -66 2 0 -15 -21 -12 -41 6 -15 13 -16 20 -6 35 19 30 -17 58 -83 64
-91 9 -95 11 -98 45 -1 16 1 30 6 30 12 0 31 66 22 79 -7 12 -138 37 -147 28
-6 -7 46 -84 61 -90 7 -3 25 -29 40 -59 15 -30 50 -81 77 -113 28 -33 57 -68
65 -78 10 -12 21 -16 32 -11 24 10 63 8 71 -4 3 -6 27 -16 53 -22 65 -17 79
-36 33 -44 -21 -4 -33 -11 -29 -18 4 -7 -7 -9 -35 -6 -22 2 -41 2 -41 0 0 -1
7 -19 15 -39 18 -43 15 -50 -17 -30 -12 8 -34 17 -48 21 -34 8 -110 76 -114
101 -4 27 -178 92 -249 94 -27 0 -55 5 -61 10 -6 4 -35 16 -63 25 -62 21 -72
42 -15 32 88 -16 112 -18 112 -9 0 22 -78 46 -134 41 -31 -3 -59 -8 -63 -11
-15 -16 42 -57 101 -71 l61 -15 -90 6 c-79 5 -101 11 -190 53 -55 26 -113 52
-128 58 -35 15 -80 15 -94 1 -16 -16 -43 16 -45 54 -1 31 -1 82 1 102 1 6 14
18 29 27 15 9 43 30 62 47 19 17 38 31 42 31 4 0 32 9 63 21 51 19 61 28 99
88 85 131 151 152 258 81 33 -22 66 -40 73 -40 7 0 33 -16 58 -35 25 -19 53
-35 62 -35 26 0 68 34 173 138 53 52 110 101 126 108 34 15 74 10 121 -13z
m289 -168 c23 -12 71 -41 109 -63 37 -23 71 -42 76 -42 5 0 24 -18 42 -41 17
-22 49 -52 71 -65 21 -14 36 -29 33 -34 -3 -6 -2 -10 3 -10 4 0 18 -17 30 -37
12 -21 34 -51 49 -68 108 -115 137 -215 62 -215 -16 0 -29 -5 -29 -11 0 -5 -5
-7 -11 -3 -6 3 -24 -3 -40 -15 -21 -16 -43 -21 -88 -21 -33 0 -63 5 -66 11 -5
7 -32 8 -80 4 l-73 -7 -17 30 c-13 21 -28 32 -49 34 -17 3 -37 7 -45 9 -7 2
-16 -3 -18 -11 -4 -13 -3 -13 7 0 8 12 9 9 4 -12 -3 -16 -2 -28 4 -28 11 0 21
-33 28 -89 3 -19 10 -41 16 -48 6 -7 -22 1 -62 18 -40 16 -77 28 -84 26 -7 -3
-13 5 -14 19 -1 19 8 30 48 52 l50 28 -28 23 c-26 21 -26 22 -4 17 20 -4 22
-1 16 17 -4 12 -7 29 -7 37 0 8 -8 24 -18 36 -28 31 -39 176 -15 203 19 20 30
104 29 218 0 79 -3 78 71 38z m-1750 -244 c16 -9 35 -26 44 -38 13 -21 13 -23
-1 -23 -9 0 -22 6 -29 14 -8 7 -33 23 -56 35 -23 12 -42 26 -42 31 0 13 46 3
84 -19z m4 -103 c7 -7 12 -28 12 -47 0 -32 -4 -38 -38 -52 l-37 -15 36 -24
c20 -13 40 -33 45 -44 5 -12 26 -29 47 -39 35 -18 49 -37 26 -37 -5 0 -8 -4
-5 -9 6 -10 91 -9 101 1 4 3 -1 18 -11 32 -9 15 -15 28 -13 29 38 21 51 27 60
27 6 0 24 9 40 20 23 17 32 19 50 10 34 -19 32 -4 -3 19 l-33 22 40 -6 c22 -3
49 -6 60 -6 37 -2 95 -20 95 -29 0 -5 -7 -7 -15 -4 -10 4 -13 2 -10 -8 7 -16
-13 -36 -41 -43 -94 -22 -166 -44 -189 -59 l-27 -18 30 -18 c16 -10 38 -31 48
-46 37 -54 120 -131 147 -138 32 -8 46 -34 26 -47 -11 -8 -9 -9 8 -7 12 2 22
-1 22 -7 0 -5 9 -12 20 -17 29 -10 31 -78 2 -78 -24 0 -81 47 -81 66 0 10 -12
13 -51 9 -52 -4 -77 9 -92 48 -4 11 -18 17 -36 17 -44 0 -79 19 -85 46 -7 28
-40 33 -54 8 -6 -10 -24 -17 -48 -18 -34 -1 -39 2 -42 22 -3 18 -8 22 -25 16
-31 -9 -34 -14 -17 -24 11 -7 12 -10 2 -10 -7 0 -11 -4 -8 -9 7 -11 -22 -71
-35 -71 -5 0 -11 -11 -15 -25 -3 -14 -14 -30 -23 -35 -13 -8 -13 -11 -3 -18 7
-5 15 -22 17 -38 1 -16 9 -32 16 -37 8 -4 37 -21 64 -38 28 -16 57 -33 65 -39
8 -5 31 -16 52 -25 20 -9 55 -34 78 -55 36 -33 40 -41 31 -59 -17 -30 -45 -34
-89 -12 -35 18 -40 18 -54 4 -9 -8 -22 -13 -31 -11 -13 3 -12 9 5 46 26 55 21
60 -87 92 -44 13 -100 32 -124 42 -24 10 -85 26 -135 34 -50 9 -98 22 -106 29
-8 7 -35 16 -60 20 -25 4 -51 12 -58 18 -24 19 -126 57 -154 57 -15 0 -30 -4
-33 -10 -3 -5 -40 -10 -81 -10 -48 0 -86 -6 -104 -15 -34 -18 -36 -23 -15 -52
12 -16 12 -22 2 -26 -7 -4 -6 -6 4 -6 19 -1 31 -24 23 -46 -6 -14 26 -53 60
-72 19 -10 19 -12 0 -57 -22 -54 -33 -56 -112 -20 -200 91 -211 101 -196 174
4 19 7 38 6 43 -1 4 2 7 6 7 4 0 8 9 9 21 1 11 22 39 46 62 61 57 74 80 92
165 20 95 26 106 78 131 41 20 46 20 87 6 24 -9 76 -18 115 -21 38 -2 88 -11
110 -18 84 -29 123 -38 134 -32 15 10 14 26 -3 45 -7 9 -16 33 -20 53 -8 41 2
52 49 53 23 0 34 8 50 37 12 21 33 50 47 67 15 16 34 43 42 60 17 33 30 37
150 45 37 3 71 7 74 10 10 11 58 6 70 -6z m107 -134 c26 -17 34 -57 14 -69
-21 -13 -60 -13 -55 1 3 7 -4 22 -15 35 -20 24 -23 32 -12 42 11 12 43 8 68
-9z m2975 -145 c0 -4 12 -12 28 -18 15 -6 37 -26 48 -44 15 -22 35 -37 63 -45
43 -13 83 -56 102 -110 8 -24 7 -37 -4 -58 l-14 -27 -18 26 c-15 23 -25 27
-64 27 -53 1 -78 13 -114 55 -28 35 -77 44 -97 20 -7 -8 -17 -15 -22 -15 -18
0 -46 -37 -68 -90 -13 -30 -36 -72 -52 -92 -15 -21 -32 -47 -37 -59 -4 -13
-16 -24 -27 -25 -10 -2 -38 -6 -61 -10 -31 -5 -43 -3 -43 6 0 7 7 10 15 6 24
-9 17 17 -14 54 l-28 34 -54 -13 c-30 -7 -62 -20 -71 -29 -13 -10 -21 -12 -30
-4 -7 6 -26 12 -43 14 -23 2 -34 11 -46 38 -9 19 -14 40 -12 47 3 7 -2 13 -10
13 -19 0 -41 52 -33 78 6 18 39 36 59 33 5 -1 6 2 3 7 -3 5 8 16 25 26 16 9
29 13 29 9 0 -5 19 -9 43 -8 41 0 42 1 56 48 10 32 20 47 32 47 9 0 20 7 23
16 5 14 16 15 65 10 43 -5 63 -3 72 6 14 13 69 19 69 7 0 -6 80 20 150 49 19
7 32 6 53 -6 15 -9 27 -19 27 -23z m-1463 -125 c-6 -6 -77 19 -77 27 0 4 18 0
40 -8 22 -9 39 -18 37 -19z m279 -66 c37 -46 61 -77 54 -70 -8 6 -26 12 -41
12 -15 0 -50 12 -78 27 -54 27 -63 41 -16 23 37 -14 43 -5 17 23 -22 23 -30
43 -13 33 5 -4 7 3 4 14 -3 11 -3 20 0 20 3 0 36 -37 73 -82z m-3071 -188 c3
-6 -1 -7 -9 -4 -18 7 -21 14 -7 14 6 0 13 -4 16 -10z m4205 -94 c0 -18 -17 8
-24 34 l-7 25 15 -25 c9 -14 15 -29 16 -34z m-3333 -64 c1 -46 -2 -54 -24 -70
-26 -17 -49 -39 -70 -66 -7 -8 -21 -19 -30 -25 -19 -11 -20 -9 31 -81 16 -22
27 -43 24 -45 -3 -3 -31 4 -63 15 -32 11 -70 20 -84 20 -14 0 -37 7 -51 15
-14 8 -53 29 -87 46 -35 17 -63 34 -63 39 0 11 26 20 59 20 14 0 36 7 48 15
14 10 32 13 47 9 19 -4 34 2 65 28 23 18 41 38 41 45 0 17 41 43 67 43 16 0
23 6 23 18 0 26 10 33 39 30 24 -3 26 -7 28 -56z m-879 -56 c45 0 82 -4 82 -8
0 -5 17 -8 38 -8 36 0 84 -31 70 -45 -3 -3 -36 -8 -74 -12 -38 -3 -64 -8 -59
-9 6 -2 84 -13 174 -24 165 -20 193 -29 190 -59 -3 -31 1 -41 16 -41 8 0 15 7
15 15 0 27 91 20 131 -10 51 -37 109 -63 159 -71 52 -8 70 -19 70 -45 0 -21
-28 -39 -60 -39 -13 0 -24 -9 -30 -25 -5 -14 -14 -25 -20 -25 -5 0 -12 -11
-15 -23 -8 -30 -75 -62 -107 -51 -13 5 -26 7 -30 6 -15 -4 -8 16 7 22 8 3 15
16 15 28 -1 22 -1 22 -24 -6 -17 -21 -29 -26 -44 -22 -14 5 -28 -1 -46 -19
-14 -14 -26 -30 -26 -35 0 -14 -101 -4 -110 10 -10 16 -140 -113 -174 -173
-32 -55 -49 -118 -31 -111 16 6 51 -10 81 -38 12 -11 28 -18 35 -17 22 4 59
-11 59 -24 0 -7 -4 -19 -10 -27 -6 -9 -5 -17 1 -21 15 -9 -11 -49 -31 -49 -9
0 -21 -5 -27 -11 -8 -8 -17 -8 -32 1 -12 6 -25 9 -29 6 -7 -4 -62 121 -62 142
0 5 -6 9 -13 9 -10 0 -10 -11 4 -51 16 -51 34 -132 23 -108 -3 6 -12 12 -20
12 -7 0 -11 6 -8 14 9 22 -23 26 -49 6 -22 -17 -26 -18 -46 -4 -12 9 -31 14
-44 13 -37 -4 -66 11 -82 42 -17 32 -25 35 -43 17 -9 -9 -12 -9 -12 0 0 8 -8
10 -24 6 -13 -3 -27 -1 -31 5 -3 6 -11 9 -16 5 -7 -4 -6 -10 0 -18 7 -8 5 -20
-4 -36 -8 -14 -18 -33 -21 -42 -3 -10 -9 -18 -13 -19 -3 0 -13 -3 -21 -5 -53
-15 -157 -30 -164 -23 -16 14 -30 10 -44 -11 -15 -24 -6 -70 14 -70 45 0 271
-97 295 -126 8 -10 -1 -8 -23 6 -43 25 -155 70 -161 64 -2 -2 -23 3 -47 11
-23 8 -52 15 -64 14 -20 0 -21 -1 -1 -9 18 -8 17 -9 -7 -9 -16 -1 -28 -5 -28
-9 0 -5 -14 -6 -32 -4 -22 3 -35 0 -44 -12 -7 -10 -18 -16 -26 -15 -7 1 -24 1
-37 0 -21 -1 -23 -4 -17 -38 13 -74 25 -92 70 -103 129 -32 167 -43 172 -51 3
-5 0 -9 -5 -9 -6 0 -11 -7 -11 -16 0 -12 -3 -14 -13 -6 -8 7 -18 7 -27 2 -8
-6 -26 -10 -40 -10 -74 -2 90 -35 203 -42 41 -2 46 -23 4 -23 -14 0 -29 -3
-33 -7 -4 -5 -16 -8 -26 -8 -10 0 -18 -4 -18 -10 0 -5 -7 -10 -16 -10 -8 0
-12 5 -9 10 3 6 -1 10 -9 10 -10 0 -13 6 -10 15 7 17 -11 21 -21 5 -3 -5 -13
-10 -21 -10 -8 0 -12 5 -9 10 3 6 -1 10 -9 10 -9 0 -16 -4 -16 -9 0 -5 -9 -7
-20 -4 -11 3 -20 10 -20 15 0 5 -4 6 -10 3 -5 -3 -10 -1 -10 6 0 10 -3 10 -12
1 -29 -29 -45 -14 -54 51 -9 65 -27 80 -48 42 -25 -45 -51 -40 -67 15 -11 35
-9 39 20 69 31 32 39 51 21 51 -5 0 -10 9 -10 20 0 11 5 20 11 20 6 0 9 6 6
13 -2 6 0 20 5 30 7 15 4 17 -25 17 -55 0 -97 11 -97 26 0 8 -7 14 -16 14 -8
0 -13 -4 -10 -9 3 -5 -6 -8 -20 -7 -19 1 -24 5 -20 19 4 17 -1 18 -67 11 -129
-12 -151 -25 -133 -81 6 -18 3 -23 -9 -23 -10 0 -13 5 -9 12 4 7 3 8 -4 4 -7
-4 -12 -14 -12 -22 0 -16 26 -19 35 -4 4 6 10 8 15 5 5 -3 21 2 35 11 14 9 25
12 25 6 0 -6 -5 -14 -10 -17 -6 -4 -7 -11 -4 -17 4 -6 2 -8 -4 -4 -6 3 -28
-15 -49 -41 -21 -25 -58 -67 -83 -92 -47 -48 -171 -141 -188 -141 -5 0 -15 -7
-22 -15 -10 -12 -16 -13 -26 -4 -8 6 -11 15 -8 20 3 5 -2 6 -10 3 -9 -3 -16
-1 -16 5 0 13 69 61 88 61 8 0 25 9 39 20 14 11 31 20 38 20 7 0 19 7 26 16 8
10 -10 5 -48 -15 -35 -17 -69 -31 -77 -31 -8 0 -28 -13 -44 -30 -35 -35 -38
-36 -46 -14 -4 11 -2 15 8 11 8 -3 16 -3 18 1 5 12 61 47 95 61 18 7 30 17 27
22 -3 5 3 6 12 2 13 -5 15 -3 9 7 -5 9 -4 11 4 6 9 -6 141 57 141 67 0 2 -17
2 -37 0 -36 -2 -36 -2 -8 6 17 4 44 15 60 24 l30 16 -45 1 c-52 0 -116 17
-214 54 -79 30 -111 33 -102 11 3 -10 -1 -15 -12 -15 -10 0 -27 -7 -38 -15
-19 -15 -19 -15 0 -30 19 -15 19 -15 -3 -15 -12 0 -31 -4 -41 -10 -24 -13 -50
-3 -50 19 0 9 -7 26 -15 38 -8 12 -12 23 -7 26 4 2 1 2 -7 0 -8 -2 -25 4 -39
13 -17 11 -22 12 -17 3 4 -8 -2 -3 -14 11 l-20 25 6 -24 c4 -14 1 -26 -8 -32
-11 -6 -8 -9 9 -9 12 0 22 -5 22 -11 0 -5 -4 -8 -9 -4 -17 10 -20 -11 -6 -38
9 -18 10 -27 2 -30 -7 -2 -3 -16 11 -39 28 -45 28 -48 -4 -48 -14 0 -32 -6
-40 -14 -7 -8 -19 -16 -26 -18 -18 -7 9 -56 35 -64 14 -4 16 -8 7 -14 -7 -4
-9 -13 -6 -19 4 -6 0 -11 -9 -11 -9 0 -13 -4 -10 -10 3 -5 4 -10 1 -10 -3 0
-22 26 -43 58 -21 31 -59 87 -86 124 -46 63 -48 69 -46 127 1 34 6 61 11 61
13 0 -2 53 -22 73 -17 18 -17 18 -13 -17 5 -51 -15 -47 -73 14 -26 28 -54 50
-61 50 -7 0 -50 34 -95 76 -81 74 -149 119 -162 107 -3 -4 -6 1 -6 10 0 9 -6
17 -12 17 -7 0 -40 14 -73 30 -81 40 -89 40 -81 -10 l6 -40 -42 5 c-183 19
-269 26 -277 20 -6 -3 -17 8 -26 24 -18 35 -28 43 -48 35 -12 -4 -12 -11 -3
-38 6 -19 16 -40 22 -47 6 -8 14 -25 17 -39 5 -20 18 -28 64 -43 32 -9 68 -17
81 -17 40 0 23 -15 -41 -35 -96 -30 -145 -34 -217 -18 -82 19 -107 20 -149 12
-36 -8 -57 7 -107 76 -19 27 -24 29 -43 18 -11 -7 -27 -13 -35 -13 -8 0 -16
-7 -20 -15 -3 -8 -16 -15 -28 -14 -57 1 -188 -42 -188 -62 0 -6 -4 -8 -9 -5
-5 3 -14 -1 -21 -8 -6 -8 -20 -13 -31 -11 -12 2 -19 -2 -19 -11 0 -8 -4 -15
-10 -15 -5 -1 -14 -3 -20 -4 -5 -1 -14 -3 -19 -4 -5 0 -11 -8 -14 -15 -4 -10
-1 -13 9 -9 20 7 44 -15 44 -41 0 -59 -118 -225 -183 -259 -35 -18 -46 -19
-114 -9 -74 10 -77 12 -125 63 -27 29 -51 63 -54 76 -7 26 -16 28 -47 11 -26
-14 -87 -17 -87 -5 0 5 -6 7 -14 4 -11 -4 -13 2 -10 25 4 36 10 41 84 68 104
38 117 51 195 205 53 105 65 120 186 227 14 13 28 28 30 33 8 19 184 173 217
189 19 10 63 19 100 20 99 5 225 27 243 42 8 8 19 14 23 14 4 0 26 9 50 19 39
18 47 19 97 6 30 -8 74 -16 98 -19 40 -4 47 -1 90 38 51 48 68 58 132 80 59
21 71 20 136 -10 l55 -26 41 31 c23 17 61 40 84 52 36 19 45 21 71 10 16 -7
38 -20 49 -30 58 -54 132 -73 184 -46 39 21 86 15 172 -22 60 -25 64 -25 140
-13 114 18 217 -1 272 -51 47 -42 85 -64 104 -60 9 1 12 -3 8 -13 -4 -11 -1
-16 11 -17 30 -2 86 2 107 7 19 5 19 4 2 -10 -18 -14 -18 -15 0 -24 32 -17 73
-23 73 -12 0 6 -4 9 -9 5 -5 -3 -12 -2 -15 3 -2 4 5 9 17 9 12 1 23 7 25 13 2
5 8 8 13 4 5 -3 12 2 15 10 3 9 10 13 15 10 5 -3 9 2 9 10 0 14 32 39 55 42 6
1 12 3 15 4 3 1 17 3 32 5 25 3 26 2 16 -20 -6 -14 -15 -22 -19 -19 -16 9 -10
-3 8 -17 14 -12 15 -12 9 0 -7 10 -3 12 14 6 17 -5 21 -4 15 6 -6 9 -3 10 10
5 10 -4 21 -3 24 2 3 5 35 13 71 16 57 6 63 5 48 -7 -10 -8 -18 -19 -18 -24 0
-13 38 -24 45 -14 2 4 24 8 49 9 25 1 56 6 69 11 14 5 30 5 40 0 13 -7 15 -6
11 4 -3 10 3 13 25 12 18 -1 28 2 24 8 -4 6 0 8 10 4 9 -3 17 -2 19 3 2 5 9
10 17 12 8 2 23 11 33 21 10 9 27 17 37 17 20 0 61 44 61 65 0 17 44 45 70 45
20 0 23 10 23 64 -1 11 6 26 13 34 8 7 14 23 14 35 1 22 21 57 34 57 4 0 14 7
22 15 9 8 25 15 37 15 12 0 28 4 34 8 7 5 39 4 70 -1 32 -5 95 -10 141 -11z
m1147 -16 c-3 -5 -13 -10 -21 -10 -8 0 -12 5 -9 10 3 6 13 10 21 10 8 0 12 -4
9 -10z m2086 -39 c30 -10 67 -26 84 -35 34 -18 81 -13 140 13 22 10 49 21 59
25 22 8 106 -30 106 -47 0 -7 -5 -5 -10 3 -6 9 -10 10 -10 3 0 -7 6 -16 13
-20 7 -4 23 -34 35 -65 19 -52 20 -59 6 -73 -19 -18 -35 -20 -32 -2 2 7 -11
13 -33 15 -27 2 -44 -3 -67 -23 -17 -14 -36 -24 -43 -23 -7 2 -14 -4 -15 -12
-2 -8 -5 -32 -9 -53 l-6 -38 -29 21 c-39 27 -57 25 -62 -7 -4 -26 -1 -28 37
-31 22 -1 49 -6 60 -11 11 -6 58 -19 105 -30 146 -35 220 -57 233 -70 14 -14
-15 -9 -90 15 -131 42 -234 53 -343 35 -70 -12 -122 -32 -97 -38 26 -7 20 -23
-8 -23 -14 0 -25 5 -25 10 0 6 -7 10 -16 10 -8 0 -13 -4 -10 -9 6 -10 -16 -21
-43 -21 -9 0 -24 -8 -33 -19 -15 -18 -13 -20 28 -40 24 -12 48 -20 54 -16 5 3
7 0 4 -8 -3 -9 -23 -14 -62 -14 -31 -1 -70 -3 -87 -6 -16 -3 -36 -6 -44 -6 -7
-1 -11 -7 -8 -15 4 -11 -3 -16 -26 -19 -29 -4 -30 -5 -9 -12 27 -9 29 -25 3
-25 -23 0 -46 -25 -32 -34 6 -4 8 -13 4 -22 -3 -8 5 -26 18 -40 l23 -25 -22
-6 c-12 -3 -22 -9 -22 -14 0 -5 -7 -9 -15 -9 -8 0 -15 -5 -15 -11 0 -6 9 -9
20 -6 11 3 20 0 20 -5 0 -6 -13 -8 -33 -5 -20 3 -40 0 -52 -9 -10 -8 -15 -14
-9 -15 5 0 -8 -9 -30 -19 -29 -13 -47 -16 -69 -9 -16 5 -34 6 -40 2 -6 -4 -7
-1 -2 7 6 10 4 12 -10 6 -15 -5 -16 -4 -5 9 7 9 9 15 4 14 -5 -1 -21 3 -35 10
-23 11 -32 9 -84 -18 -32 -17 -64 -31 -71 -31 -7 0 -18 17 -24 38 -10 31 -9
47 8 95 10 31 15 57 10 57 -4 0 -8 -6 -8 -13 0 -8 -11 -24 -25 -37 l-25 -23 0
21 c0 12 -3 22 -7 22 -15 0 -105 -65 -129 -93 -26 -31 -26 -34 -21 -142 6
-128 39 -291 72 -355 29 -58 94 -197 106 -227 5 -13 27 -50 49 -83 22 -32 40
-63 40 -67 0 -5 -9 -16 -20 -26 -19 -16 -22 -15 -80 42 -45 43 -60 65 -61 87
-1 28 -1 28 -8 4 -7 -24 -41 -42 -41 -21 0 6 -7 11 -15 11 -9 0 -18 12 -21 29
-5 22 -10 27 -25 24 -33 -9 -23 39 22 101 48 68 49 55 -11 281 -27 102 -42
183 -43 224 l-1 64 -37 -41 c-47 -50 -67 -111 -51 -154 9 -25 9 -28 -4 -17
-12 10 -13 9 -8 -7 4 -10 13 -28 20 -38 9 -13 10 -25 4 -37 -6 -11 -6 -28 1
-48 8 -22 8 -44 -1 -78 -20 -82 -24 -119 -11 -107 8 7 30 8 69 2 31 -5 57 -10
58 -11 1 -1 -20 -35 -46 -76 -26 -41 -56 -101 -66 -135 -9 -34 -23 -68 -29
-76 -21 -27 -26 -50 -10 -50 8 0 15 -7 15 -15 0 -24 25 -18 59 14 l30 28 -6
-43 c-5 -36 -2 -46 20 -68 24 -24 24 -25 6 -31 -15 -5 -18 -12 -13 -27 4 -14
2 -18 -5 -14 -6 4 -11 0 -12 -11 0 -10 -3 -13 -6 -5 -7 17 -23 15 -23 -4 0 -8
-5 -12 -10 -9 -6 4 -19 4 -28 0 -15 -6 -15 -8 3 -15 14 -6 5 -9 -32 -9 -34 -1
-53 3 -53 11 0 6 -3 8 -6 5 -4 -4 -1 -13 5 -21 10 -11 8 -15 -6 -19 -15 -4
-15 -5 3 -6 19 -1 21 -5 14 -38 -10 -52 -19 -71 -52 -120 -16 -24 -24 -43 -18
-43 5 0 10 -4 10 -10 0 -5 -6 -7 -14 -4 -16 6 -29 44 -15 44 4 0 5 8 2 17 -5
12 -2 15 10 10 14 -5 15 -3 5 13 -8 12 -17 16 -27 11 -9 -5 -22 -6 -28 -4 -7
3 -13 -2 -13 -11 0 -10 -9 -16 -21 -16 -13 0 -23 -8 -26 -21 -4 -14 -12 -19
-24 -16 -11 3 -17 1 -13 -4 3 -5 -3 -9 -12 -9 -10 0 -15 -3 -11 -6 3 -3 -7
-18 -22 -33 -15 -15 -26 -32 -24 -38 3 -7 -5 -20 -16 -30 -12 -9 -21 -23 -21
-30 0 -12 -13 -17 -32 -14 -4 0 -1 -17 8 -39 9 -23 14 -44 11 -47 -4 -3 -11 6
-16 21 -6 14 -12 26 -14 26 -6 0 -1 -33 8 -53 26 -62 -20 -167 -73 -167 -15 0
-18 6 -14 30 3 23 0 30 -12 30 -15 0 -20 -11 -17 -37 2 -16 -15 -17 -25 -2 -3
6 0 15 7 20 8 5 10 9 4 9 -5 0 -3 5 5 10 13 8 13 11 1 19 -11 7 -9 10 8 16 29
9 26 23 -5 19 -22 -2 -24 0 -12 14 7 9 18 20 23 24 6 5 5 8 -3 8 -7 0 -10 5
-7 10 4 6 10 8 15 5 4 -3 7 2 6 12 -2 9 -12 17 -23 18 -28 2 -65 -13 -59 -23
10 -16 -59 -9 -70 7 -9 11 -16 12 -25 5 -8 -6 -29 -10 -46 -10 -18 1 -33 -2
-33 -6 0 -3 -8 -4 -19 -1 -10 2 -35 0 -55 -5 l-36 -10 6 41 c3 23 12 69 19
102 8 33 17 101 19 150 3 50 11 110 19 135 26 83 89 201 126 238 79 79 93 103
86 148 -5 37 -3 45 25 73 31 30 239 141 266 141 8 0 14 -9 14 -20 0 -11 4 -20
9 -20 12 0 41 28 41 40 0 7 37 23 51 22 3 -1 4 10 2 23 -4 16 1 27 16 34 12 7
21 16 21 22 0 5 9 29 20 51 31 64 19 54 -29 -22 -23 -39 -47 -70 -52 -70 -6 0
2 15 16 34 14 19 25 38 23 42 -1 5 5 18 15 29 9 11 17 24 16 28 0 4 14 24 30
43 17 19 31 39 31 44 0 14 42 81 47 76 3 -3 -5 -22 -17 -43 l-22 -38 30 35
c17 19 37 59 46 88 10 35 31 73 62 108 46 54 46 55 18 48 -46 -11 -64 -23 -64
-44 0 -11 -4 -20 -10 -20 -5 0 -10 -7 -10 -15 0 -8 -7 -15 -16 -15 -10 0 -14
-6 -10 -15 7 -19 3 -19 -45 5 l-40 21 22 32 22 32 -36 -34 -36 -34 -75 25
c-42 15 -76 22 -78 16 -2 -5 -25 -6 -57 -2 -40 5 -55 12 -58 25 -3 11 -12 19
-19 19 -20 0 -17 20 4 22 9 0 22 2 29 2 7 1 19 10 26 20 15 21 42 13 33 -10
-4 -11 5 -14 40 -14 51 0 64 16 45 56 -6 14 -8 31 -4 37 4 7 6 25 4 42 -2 23
0 27 11 18 7 -5 27 -13 43 -17 29 -6 29 -6 10 10 -11 8 -25 18 -31 22 -12 8
-45 72 -38 72 3 0 14 -5 24 -10 13 -7 21 -7 26 1 4 7 20 -2 43 -25 45 -44 97
-66 157 -66 37 0 47 -4 51 -20 3 -13 14 -20 29 -20 17 0 22 4 18 15 -4 10 0
15 14 15 11 0 28 3 38 7 11 4 15 3 11 -4 -5 -7 6 -11 29 -10 35 1 36 2 15 15
-11 8 -21 23 -21 33 0 16 -5 18 -27 14 -25 -6 -26 -5 -9 6 10 6 44 11 75 11
51 0 53 1 23 9 -32 10 -36 29 -5 29 11 0 13 5 8 18 -4 9 -8 24 -8 32 0 8 -7
20 -16 27 -14 10 -13 11 4 7 23 -6 20 -11 90 140 25 54 45 104 45 111 0 27 87
106 152 139 36 18 86 49 110 69 57 47 114 68 208 77 99 11 186 4 251 -19z
m-4148 -5 c4 -10 1 -13 -9 -9 -7 3 -14 9 -14 14 0 14 17 10 23 -5z m547 4 c0
-5 -2 -10 -4 -10 -3 0 -8 5 -11 10 -3 6 -1 10 4 10 6 0 11 -4 11 -10z m-813
-90 c-1 -10 -5 -16 -9 -14 -5 3 -6 10 -3 15 4 5 2 9 -3 9 -5 0 -14 -10 -20
-22 -8 -18 -11 -19 -11 -5 -1 9 -7 17 -13 17 -7 1 1 7 17 14 35 15 44 13 42
-14z m143 19 c0 -5 -4 -7 -10 -4 -5 3 -10 2 -10 -4 0 -5 6 -11 13 -14 7 -3 5
-7 -8 -12 -11 -3 -28 -11 -37 -16 -28 -14 -43 -12 -29 5 8 10 9 16 1 21 -5 3
-10 11 -10 17 0 6 10 3 23 -8 12 -10 19 -15 15 -10 -4 4 -1 14 5 22 14 16 47
18 47 3z m360 -29 c0 -9 -17 -14 -47 -13 -6 0 -9 -6 -6 -13 3 -8 1 -14 -5 -14
-14 0 -23 28 -11 36 5 3 16 3 24 0 8 -3 15 -1 15 4 0 6 7 10 15 10 8 0 15 -4
15 -10z m-565 -11 c11 -16 1 -19 -13 -3 -7 8 -8 14 -3 14 5 0 13 -5 16 -11z
m475 -13 c0 -3 -4 -8 -10 -11 -5 -3 -10 -1 -10 4 0 6 5 11 10 11 6 0 10 -2 10
-4z m-52 -42 c-16 -8 -28 -17 -28 -21 0 -3 3 -3 6 0 4 3 15 2 25 -3 11 -7 19
-6 22 0 3 6 4 5 3 -2 -2 -7 -8 -12 -14 -11 -5 1 -16 -4 -22 -12 -15 -18 -34
-20 -24 -2 4 6 -2 3 -14 -7 -12 -11 -22 -15 -22 -9 0 5 -13 8 -30 5 -18 -2
-30 0 -30 7 0 6 7 8 15 5 10 -4 15 0 15 12 0 14 2 16 9 6 6 -11 10 -10 15 3 5
14 9 15 21 5 13 -11 14 -10 10 2 -4 9 3 19 17 26 35 16 57 13 26 -4z m-193
-14 c-3 -5 -14 -10 -23 -9 -14 0 -13 2 3 9 27 11 27 11 20 0z m330 0 c-3 -5
-14 -10 -23 -10 -15 0 -15 2 -2 10 20 13 33 13 25 0z m-395 -24 c0 -2 -9 -6
-20 -9 -11 -3 -18 -1 -14 4 5 9 34 13 34 5z m-150 -15 c0 -5 3 -16 6 -25 4
-11 0 -14 -15 -11 -11 2 -23 0 -26 -5 -3 -5 -13 -6 -22 -3 -11 4 -14 3 -9 -5
5 -8 2 -10 -8 -6 -20 7 -21 24 -3 24 8 0 22 9 32 20 19 21 45 27 45 11z m45
-1 c-3 -5 -14 -10 -23 -9 -14 0 -13 2 3 9 27 11 27 11 20 0z m568 -32 c-44
-22 -40 -22 -46 2 -3 11 -1 18 3 15 5 -3 11 -1 15 5 3 5 14 10 23 9 14 0 13
-2 -3 -9 -18 -8 -18 -9 -2 -9 10 -1 20 6 24 15 5 12 7 13 14 3 6 -10 -3 -19
-28 -31z m60 27 c-3 -9 -8 -14 -10 -11 -3 3 -2 9 2 15 9 16 15 13 8 -4z m-115
-36 c2 -10 -12 -18 -43 -25 -25 -6 -45 -7 -45 -2 0 4 6 8 13 8 8 0 22 9 32 20
20 22 38 22 43 -1z m-654 -14 c3 -8 1 -15 -4 -15 -6 0 -10 7 -10 15 0 8 2 15
4 15 2 0 6 -7 10 -15z m426 -6 c0 -11 -4 -18 -9 -14 -5 3 -12 1 -16 -5 -3 -5
-12 -10 -18 -10 -7 0 -6 4 3 11 12 8 11 9 -5 6 -11 -2 -19 -9 -17 -16 1 -7 -2
-10 -8 -6 -18 11 8 43 37 48 16 2 29 5 31 6 1 0 2 -8 2 -20z m-455 1 c3 -5 -1
-10 -9 -10 -9 0 -16 5 -16 10 0 6 4 10 9 10 6 0 13 -4 16 -10z m355 -17 c0 -1
-9 -7 -20 -13 -15 -8 -20 -8 -20 3 0 7 9 13 20 13 11 0 20 -1 20 -3z m205 -3
c-3 -5 -11 -10 -16 -10 -6 0 -7 5 -4 10 3 6 11 10 16 10 6 0 7 -4 4 -10z m-45
-14 c0 -3 -4 -8 -10 -11 -5 -3 -10 -1 -10 4 0 6 5 11 10 11 6 0 10 -2 10 -4z
m3022 -132 c76 -25 141 -50 144 -55 3 -5 -19 -9 -49 -9 -45 0 -61 5 -92 30
-21 17 -45 28 -53 25 -7 -3 -23 0 -35 7 -30 15 -72 48 -61 48 4 0 70 -21 146
-46z m1865 6 c31 -16 67 -30 79 -30 27 0 79 -17 124 -40 19 -9 69 -27 110 -39
67 -19 212 -80 280 -116 14 -8 27 -21 28 -31 5 -21 -21 -16 -130 28 -74 29
-79 30 -103 14 -34 -22 -61 -20 -136 10 -76 30 -159 57 -249 79 -68 17 -151
48 -210 78 -35 18 -35 18 -5 12 17 -3 48 -14 70 -25 22 -10 69 -21 105 -25 36
-3 99 -17 140 -30 42 -13 93 -26 115 -30 l40 -6 -25 20 c-14 11 -82 46 -152
77 -70 31 -133 62 -139 70 -17 20 -7 18 58 -16z m-2153 -135 c3 -9 0 -12 -9
-9 -7 3 -16 12 -19 19 -3 9 0 12 9 9 7 -3 16 -12 19 -19z m228 -5 c31 -11 68
-32 83 -46 26 -24 27 -27 11 -42 -12 -12 -19 -14 -24 -6 -4 6 -17 15 -30 19
-13 4 -21 12 -19 19 4 9 -2 11 -19 8 -38 -7 -68 5 -108 44 l-38 37 45 -6 c24
-3 69 -16 99 -27z m-537 -3 c11 -3 26 -6 33 -6 7 -1 10 -6 6 -13 -4 -7 -3 -8
5 -4 19 12 61 -3 61 -22 0 -12 2 -14 8 -4 9 14 42 6 42 -10 0 -5 5 -6 10 -3 6
3 13 -1 16 -9 9 -23 25 -20 51 12 17 21 22 23 23 10 0 -10 -8 -23 -19 -29 -12
-8 -16 -19 -13 -33 5 -19 5 -19 -18 2 -13 12 -27 19 -33 15 -5 -3 0 -13 11
-22 16 -12 21 -26 19 -53 -2 -33 -7 -40 -47 -62 -33 -17 -51 -22 -67 -15 -12
4 -36 4 -53 -1 -27 -8 -30 -7 -20 5 10 12 9 15 -3 15 -8 0 -20 -7 -27 -15 -10
-12 -26 -15 -67 -11 -33 3 -51 1 -48 -5 4 -5 11 -7 16 -4 5 4 9 1 9 -4 0 -6
-11 -11 -24 -11 -13 0 -33 -3 -43 -7 -16 -6 -17 -5 -3 12 14 17 13 17 -10 10
-14 -4 -29 -11 -34 -16 -6 -5 -18 -9 -28 -9 -10 0 -18 -4 -18 -9 0 -9 -40 -26
-50 -22 -3 1 -3 10 -2 19 3 11 -7 6 -27 -14 -17 -17 -44 -38 -59 -45 -16 -8
-31 -18 -33 -24 -2 -5 -15 -10 -28 -10 -19 -1 -28 -10 -42 -43 -13 -29 -24
-42 -38 -42 -11 0 -23 -5 -26 -10 -4 -7 -12 -7 -24 0 -10 5 -21 7 -24 4 -11
-11 -92 -12 -105 -2 -10 9 -15 9 -21 -1 -6 -10 -12 -9 -25 4 -9 10 -24 14 -35
10 -11 -3 -22 -2 -24 2 -7 11 29 79 40 76 4 -2 9 2 9 7 1 6 2 15 3 20 0 6 8
10 16 10 8 0 15 -4 15 -10 0 -5 -5 -10 -12 -10 -6 0 -9 -2 -6 -6 3 -3 21 4 39
15 19 12 39 21 46 21 7 0 36 11 65 24 29 12 60 26 69 29 9 3 19 18 22 34 5 29
-2 48 -10 26 -3 -7 -11 -13 -19 -13 -9 0 -13 -3 -10 -8 2 -4 -2 -16 -10 -27
-8 -10 -14 -14 -14 -8 0 7 -12 11 -27 10 -17 -1 -27 3 -26 10 2 7 -4 10 -13 6
-9 -3 -11 -8 -6 -12 16 -9 -10 -39 -40 -46 -15 -4 -29 -2 -32 4 -5 8 -16 6
-36 -4 -36 -19 -37 -19 -44 1 -3 8 1 26 10 40 9 13 13 24 9 24 -4 0 -1 7 6 17
11 13 11 17 2 20 -7 3 -13 9 -13 15 0 6 6 8 13 5 7 -3 13 5 13 18 2 21 -2 23
-32 20 -37 -3 -46 13 -19 35 8 7 13 16 10 20 -13 20 31 39 250 108 30 9 521 8
560 -1z m1700 -67 c3 -5 -1 -10 -10 -10 -9 0 -13 5 -10 10 3 6 8 10 10 10 2 0
7 -4 10 -10z m-1038 -36 c-3 -3 -12 -4 -19 -1 -8 3 -5 6 6 6 11 1 17 -2 13 -5z
m-1277 -199 c0 -2 -9 -9 -20 -15 -12 -6 -20 -7 -20 -1 0 5 8 12 18 14 9 3 18
5 20 6 1 0 2 -1 2 -4z m2028 -75 c12 -11 25 -20 31 -20 5 0 11 -7 15 -15 6
-16 -26 -39 -39 -27 -5 4 -5 2 -1 -5 3 -7 -2 -14 -14 -18 -11 -3 -20 -11 -20
-17 0 -5 7 -8 15 -4 9 3 15 0 15 -9 0 -8 8 -19 18 -24 12 -8 13 -10 3 -11 -8
0 -11 -3 -8 -7 10 -9 -13 -33 -32 -33 -14 1 -14 2 2 11 20 12 14 31 -8 23 -8
-3 -20 4 -27 15 -7 12 -17 21 -22 21 -5 0 1 -11 13 -24 16 -17 19 -26 11 -31
-7 -4 -16 -2 -20 5 -10 17 -31 3 -23 -15 3 -8 4 -15 2 -16 -2 0 -24 -3 -49 -6
-25 -3 -53 -12 -63 -21 -9 -8 -20 -12 -25 -8 -4 4 3 16 16 27 22 17 23 47 1
34 -5 -4 -9 -2 -9 4 0 5 16 15 35 21 19 6 40 20 45 31 15 27 0 24 -60 -11 -27
-16 -50 -25 -50 -20 0 6 -8 5 -19 -2 -15 -9 -23 -9 -35 1 -9 7 -14 17 -11 21
3 5 -1 15 -9 23 -9 8 -11 19 -6 27 6 9 3 18 -8 27 -19 14 -21 13 46 16 35 2
42 -7 15 -17 -15 -6 -15 -8 -3 -16 8 -6 11 -10 7 -10 -5 0 -6 -4 -2 -9 8 -13
55 36 55 57 0 15 -2 15 -10 2 -6 -9 -10 -10 -10 -3 0 17 15 24 58 27 21 2 47
8 58 14 32 19 98 14 122 -8z m-447 -12 l25 -12 -40 -41 c-68 -71 -78 -72 -131
-24 -57 53 -59 72 -7 63 20 -3 47 -15 59 -26 17 -16 25 -18 42 -9 22 12 29 31
11 31 -5 0 -10 7 -10 15 0 18 17 19 51 3z m588 -18 c6 0 19 -4 29 -9 9 -5 39
-16 67 -25 44 -13 52 -13 66 0 15 14 17 13 15 -3 -1 -15 7 -18 52 -19 28 -1
52 3 52 7 0 12 47 11 55 -1 4 -6 11 -8 16 -5 5 4 9 2 9 -4 0 -11 38 -26 58
-23 6 2 12 -2 12 -9 0 -8 4 -8 15 1 12 10 15 9 15 -4 0 -10 11 -19 30 -23 17
-3 33 -10 36 -14 9 -15 34 -10 28 5 -3 8 -2 16 3 18 12 6 78 -18 76 -28 -1 -5
5 -8 13 -6 9 2 22 -2 30 -9 8 -6 17 -9 21 -6 3 4 13 1 21 -6 13 -9 14 -9 8 1
-8 14 5 16 20 3 5 -5 33 -14 63 -20 50 -11 57 -10 97 14 52 31 54 31 54 2 0
-15 9 -28 23 -35 30 -16 58 -35 75 -49 7 -7 25 -13 38 -13 14 0 34 -5 45 -11
18 -9 19 -17 14 -52 -9 -53 -44 -114 -56 -96 -4 7 -5 17 -3 21 3 4 -2 8 -10 8
-9 0 -16 -4 -16 -9 0 -12 -29 -41 -41 -41 -5 0 -9 6 -9 13 0 7 -16 19 -35 27
-19 8 -35 18 -35 22 0 5 -5 6 -12 2 -8 -5 -9 -2 -5 10 8 20 -6 14 -41 -18
l-24 -21 8 29 c9 36 -8 48 -61 41 -38 -4 -39 -4 -9 5 18 6 34 16 37 24 6 16
-19 30 -28 16 -4 -6 -16 -10 -28 -10 -20 0 -20 0 -1 15 19 14 19 14 -3 15 -12
0 -24 6 -26 13 -7 16 -29 -13 -23 -29 3 -7 -3 -10 -15 -7 -15 4 -18 12 -14 39
4 31 3 33 -15 21 -11 -6 -20 -16 -20 -22 0 -5 -7 -2 -14 8 -16 20 -34 19 -56
-4 -8 -9 -23 -15 -32 -13 -10 1 -21 -3 -25 -9 -7 -10 -31 -24 -78 -46 -5 -2 2
9 16 25 29 33 55 91 45 101 -4 4 -19 -6 -34 -22 -15 -16 -20 -23 -11 -17 16
12 32 6 23 -9 -9 -15 -29 -10 -52 11 -18 17 -22 18 -22 5 0 -9 -4 -14 -9 -10
-5 3 -13 0 -17 -6 -3 -6 0 -15 7 -20 8 -5 9 -9 3 -9 -6 0 -17 7 -24 15 -13 16
-30 11 -30 -8 0 -8 3 -8 9 2 6 10 10 10 16 1 10 -17 -2 -24 -24 -14 -15 7 -17
14 -10 32 7 18 14 22 31 17 20 -5 21 -5 5 5 -10 7 -25 9 -33 6 -8 -3 -14 0
-14 6 0 7 -4 7 -13 -1 -11 -8 -17 -5 -27 13 -15 29 -43 28 -95 -3 -20 -11 -41
-21 -46 -21 -15 0 -39 26 -32 34 9 9 -25 7 -69 -3 -28 -7 -38 -5 -42 5 -3 8
-12 11 -23 7 -16 -6 -16 -5 -4 10 14 17 10 21 -21 18 -26 -3 -22 17 5 21 12 2
21 9 20 16 -3 11 9 16 32 13 6 -1 -1 8 -15 19 -33 26 -21 25 36 -4 40 -20 51
-22 73 -13 19 9 21 13 8 15 -9 2 -17 8 -17 13 0 6 -4 7 -10 4 -5 -3 -10 -2
-10 3 0 12 -59 34 -71 26 -5 -3 -9 -1 -9 5 0 5 -10 11 -22 13 -16 2 -24 11
-26 28 -2 23 -1 24 11 8 8 -10 19 -18 26 -18z m-519 -6 c0 -8 -5 -12 -10 -9
-6 4 -8 11 -5 16 9 14 15 11 15 -7z m466 -3 c0 -15 -3 -17 -18 -7 -10 6 -18
14 -18 18 0 5 8 8 18 8 11 0 18 -7 18 -19z m369 -11 c3 -5 2 -10 -4 -10 -5 0
-13 5 -16 10 -3 6 -2 10 4 10 5 0 13 -4 16 -10z m-1495 -20 c-8 -5 -19 -10
-25 -10 -5 0 -3 5 5 10 8 5 20 10 25 10 6 0 3 -5 -5 -10z m1153 -66 c-8 -21
-25 -13 -30 14 -3 20 0 21 17 12 11 -6 17 -16 13 -26z m1980 -3 c8 -9 16 -22
18 -29 3 -10 11 -8 31 7 14 12 32 21 40 21 21 -1 78 -58 78 -80 0 -12 12 -26
32 -36 18 -9 45 -29 60 -45 16 -15 38 -29 50 -31 13 -2 27 -13 33 -24 19 -38
37 -54 59 -54 34 0 46 -19 46 -72 l0 -49 -22 21 c-12 11 -26 20 -30 20 -5 0
-18 9 -30 20 -22 20 -38 18 -38 -6 0 -8 -5 -14 -11 -14 -7 0 -9 -12 -7 -30 4
-24 1 -30 -11 -28 -12 3 -15 14 -13 51 2 37 0 47 -12 47 -9 0 -16 -5 -16 -12
0 -8 -7 -5 -17 5 -17 17 -17 19 0 28 20 11 23 31 5 28 -7 -2 -31 3 -53 9 -22
7 -48 12 -57 12 -24 0 -23 -27 2 -40 11 -6 20 -18 20 -26 0 -13 -4 -13 -31 3
-17 10 -35 26 -40 35 -8 15 -58 48 -72 48 -2 0 -13 -13 -25 -30 -21 -28 -22
-31 -6 -54 17 -27 12 -61 -10 -69 -18 -7 -56 20 -56 39 0 21 -28 17 -40 -5 -5
-11 -10 -36 -10 -56 0 -23 -4 -34 -10 -30 -6 4 -26 -5 -44 -18 -30 -24 -36
-25 -68 -14 -43 15 -68 35 -68 53 0 20 -23 17 -54 -7 -29 -23 -33 -41 -11 -59
21 -17 18 -40 -8 -73 l-23 -27 -21 20 c-20 18 -21 27 -17 115 2 52 2 95 0 95
-2 0 -15 -17 -30 -38 -22 -33 -26 -49 -26 -111 0 -46 6 -83 16 -103 11 -20 12
-34 6 -40 -15 -15 -59 35 -66 77 -7 35 -19 44 -32 24 -9 -15 -33 28 -34 60 0
14 8 33 17 43 21 24 20 93 -2 117 -8 10 -15 22 -15 27 0 22 105 130 144 147
22 10 54 25 69 33 16 8 37 14 47 14 11 0 32 18 49 44 32 46 58 63 74 47 6 -6
21 -4 41 4 46 20 181 17 199 -4z m-7593 -20 c0 -16 40 -23 55 -11 20 17 19 -4
-1 -24 -12 -12 -12 -16 -2 -17 10 0 10 -2 1 -6 -7 -2 -13 -10 -13 -17 0 -20
-54 -66 -77 -66 -11 0 -26 -7 -34 -16 -22 -26 -67 -45 -105 -42 -32 2 -62 18
-34 18 7 0 10 6 7 14 -3 8 0 19 6 23 16 13 59 14 52 2 -4 -5 -1 -9 4 -9 15 0
14 33 -1 49 -11 11 -9 12 10 6 14 -4 22 -2 22 5 0 7 8 9 20 5 11 -4 20 -2 20
4 0 6 -8 11 -17 11 -16 1 -16 2 2 16 11 8 19 20 18 25 -2 5 6 9 17 9 11 0 20
7 20 15 0 8 7 15 15 15 8 0 15 -4 15 -9z m3129 -20 c9 -6 10 -10 2 -16 -16 -9
-44 2 -36 15 8 12 16 12 34 1z m2095 -6 c-5 -12 -10 -13 -20 -4 -19 15 -18 19
6 19 13 0 18 -5 14 -15z m-2044 -5 c0 -5 -7 -10 -16 -10 -8 0 -12 5 -9 10 3 6
10 10 16 10 5 0 9 -4 9 -10z m94 -15 c-19 -29 -27 -31 -43 -11 -10 11 -6 16
16 24 42 16 45 14 27 -13z m2176 11 c0 -3 -4 -8 -10 -11 -5 -3 -10 -1 -10 4 0
6 5 11 10 11 6 0 10 -2 10 -4z m-3710 -16 c0 -5 -5 -10 -11 -10 -5 0 -7 5 -4
10 3 6 8 10 11 10 2 0 4 -4 4 -10z m550 -16 c0 -2 -9 0 -20 6 -11 6 -20 13
-20 16 0 2 9 0 20 -6 11 -6 20 -13 20 -16z m1350 -17 c0 -5 -4 -5 -10 -2 -5 3
-10 14 -10 23 0 15 2 15 10 2 5 -8 10 -19 10 -23z m-4260 1 c0 -10 -4 -18 -8
-18 -5 0 -15 -18 -22 -40 -7 -22 -16 -40 -20 -40 -4 0 -4 -20 0 -45 4 -25 3
-45 -2 -45 -4 0 -8 -4 -8 -10 0 -15 -33 -50 -47 -50 -21 0 -153 -137 -153
-159 0 -16 -6 -21 -25 -21 -28 0 -31 -7 -11 -29 7 -9 16 -51 19 -96 5 -64 4
-75 -6 -55 -6 14 -12 26 -13 28 -1 1 -11 5 -23 7 -12 2 -19 0 -16 -6 4 -5 0
-11 -7 -14 -18 -7 -20 -55 -2 -55 8 0 14 -4 14 -10 0 -5 -6 -10 -13 -10 -16 0
-42 -59 -38 -89 2 -18 -1 -22 -13 -18 -18 7 -46 -28 -46 -59 0 -11 9 -29 20
-39 24 -22 28 -60 5 -51 -20 7 -38 -38 -32 -79 6 -42 -1 -59 -19 -44 -8 6 -14
8 -14 4 0 -4 -7 -2 -15 5 -11 9 -12 17 -5 31 8 15 7 17 -5 13 -8 -4 -15 -13
-15 -21 0 -8 -5 -11 -10 -8 -7 4 -6 14 2 28 15 28 18 59 7 72 -4 6 -3 44 2 85
12 85 61 196 116 259 19 22 31 45 28 51 -4 6 0 22 9 35 12 17 12 25 3 28 -13
4 1 71 27 132 8 16 19 44 26 62 7 18 27 48 46 67 19 19 34 45 34 58 0 30 15
52 29 44 20 -13 33 5 14 19 -17 13 -17 14 2 33 23 21 45 18 45 -5 0 -14 3 -14
20 2 14 13 20 14 20 5 0 -10 5 -9 18 3 10 10 24 17 31 17 8 0 9 5 1 19 -14 27
-14 28 20 28 22 0 30 -5 30 -19z m1499 8 c10 -12 8 -13 -8 -9 -12 3 -21 9 -21
14 0 14 16 11 29 -5z m3826 4 c3 -5 1 -10 -4 -10 -6 0 -11 5 -11 10 0 6 2 10
4 10 3 0 8 -4 11 -10z m-3672 -17 c-7 -2 -19 -2 -25 0 -7 3 -2 5 12 5 14 0 19
-2 13 -5z m2513 -8 c4 -8 14 -15 23 -16 10 0 12 -2 3 -6 -7 -3 -19 -20 -27
-39 -8 -19 -19 -34 -25 -34 -6 0 -9 -3 -7 -7 3 -5 -2 -14 -9 -21 -13 -12 -14
-9 -8 15 6 25 5 26 -7 11 -13 -15 -15 -16 -29 0 -13 14 -12 15 2 10 18 -7 34
17 18 27 -6 4 -10 1 -10 -4 0 -6 -8 -11 -17 -11 -14 0 -15 2 -4 9 8 5 10 14 6
21 -5 9 -4 11 3 6 22 -13 37 6 17 21 -17 12 -17 13 -2 13 9 0 17 5 17 10 0 16
50 12 56 -5z m-4256 -5 c0 -5 -4 -10 -10 -10 -5 0 -10 5 -10 10 0 6 5 10 10
10 6 0 10 -4 10 -10z m375 0 c-3 -5 2 -10 12 -11 14 0 14 -2 -4 -9 -13 -5 -23
-15 -23 -22 0 -9 -3 -9 -10 2 -8 13 -10 12 -11 -5 -1 -11 -1 -26 0 -32 1 -7
-5 -13 -13 -13 -8 0 -18 -4 -21 -10 -3 -6 1 -7 10 -4 11 4 5 -14 -20 -61 -19
-37 -35 -72 -35 -77 0 -6 -9 -23 -21 -39 -11 -16 -17 -29 -12 -29 4 0 2 -4 -5
-9 -10 -6 -6 -11 17 -19 17 -6 31 -14 31 -17 0 -3 -4 -3 -10 0 -5 3 -10 2 -10
-4 0 -5 5 -13 10 -16 11 -7 14 -75 4 -75 -4 0 -13 8 -20 18 -12 15 -13 14 -14
-13 0 -28 -19 -74 -20 -49 0 18 -38 24 -51 8 -6 -8 -17 -14 -23 -14 -14 0 -36
-46 -43 -90 -3 -19 -10 -38 -15 -41 -7 -4 -6 -9 1 -14 9 -5 9 -10 1 -20 -7 -8
-9 -19 -5 -25 3 -5 2 -10 -4 -10 -6 0 -8 -7 -4 -16 5 -14 2 -13 -16 2 -17 15
-19 20 -7 22 21 5 29 37 15 60 -10 16 -10 25 4 45 9 15 13 29 8 32 -5 3 -12
-3 -16 -14 -3 -11 -13 -25 -21 -32 -12 -10 -11 -2 4 39 16 40 17 52 7 52 -8 0
-20 -7 -29 -15 -35 -35 -50 -4 -16 33 11 12 20 26 20 32 0 5 7 10 15 10 19 0
89 51 92 68 2 6 -7 16 -18 23 -15 8 -19 8 -15 0 5 -7 1 -9 -8 -5 -9 4 -16 18
-16 34 0 22 4 28 19 27 11 -1 22 -10 26 -22 5 -20 5 -20 23 1 10 12 27 24 38
27 16 4 16 5 -3 6 -19 1 -23 7 -23 32 0 22 5 32 19 36 11 3 21 14 24 24 4 16
1 19 -13 14 -29 -9 -32 11 -5 29 14 9 25 23 25 31 0 8 7 15 15 15 8 0 15 7 15
15 0 8 9 23 19 32 11 9 17 21 15 28 -4 8 4 11 21 10 14 -2 32 3 40 12 8 8 15
12 15 8 0 -3 8 -1 18 4 22 13 25 13 17 1z m1295 0 c0 -5 -8 -10 -17 -10 -15 0
-16 2 -3 10 19 12 20 12 20 0z m2683 1 c10 -1 17 -9 17 -20 0 -14 -6 -19 -20
-18 -11 1 -20 7 -20 14 0 7 -6 13 -14 13 -8 0 -17 4 -20 8 -3 5 5 7 17 6 12
-1 30 -3 40 -3z m1479 -13 c-7 -7 -12 -8 -12 -2 0 14 12 26 19 19 2 -3 -1 -11
-7 -17z m-3448 -103 c-11 -16 -24 -25 -34 -22 -28 7 -1 -38 32 -52 15 -7 28
-19 28 -26 0 -8 15 -17 35 -21 44 -8 57 1 23 16 -24 11 -30 42 -14 68 12 19
29 14 23 -8 -7 -25 17 -44 47 -36 15 4 28 0 36 -9 10 -12 10 -15 -1 -15 -9 0
-10 -3 -3 -10 6 -6 50 -10 100 -9 49 1 104 2 121 2 23 0 30 4 23 12 -7 8 -4
12 8 11 93 0 124 5 114 17 -8 10 -5 13 14 15 34 3 87 43 74 56 -21 21 -8 28
40 24 61 -6 68 -12 45 -38 -28 -31 6 -26 35 5 12 13 28 21 34 17 6 -3 19 -5
28 -4 18 3 30 -12 72 -93 14 -27 22 -53 18 -57 -5 -5 -34 3 -66 17 -64 28 -76
30 -76 12 0 -7 -10 -18 -21 -25 -16 -10 -18 -17 -10 -25 18 -18 13 -27 -18
-27 -31 0 -59 -24 -41 -35 5 -3 7 -17 4 -31 -4 -17 -1 -26 10 -30 13 -5 46
-56 46 -72 0 -2 -9 -2 -20 1 -16 4 -20 0 -20 -18 0 -26 -39 -42 -52 -22 -5 8
-8 6 -8 -6 0 -10 -5 -15 -10 -12 -6 3 -17 -1 -26 -9 -12 -13 -19 -13 -34 -4
-15 10 -22 10 -32 0 -6 -6 -26 -12 -43 -12 -17 0 -36 -5 -42 -11 -6 -6 -17 -8
-24 -3 -19 11 -69 12 -69 1 0 -5 -6 -4 -14 2 -7 6 -21 9 -30 5 -10 -4 -16 -1
-16 7 0 7 -3 10 -6 6 -4 -3 -13 0 -21 8 -8 8 -20 15 -26 15 -7 0 -6 -4 3 -10
9 -6 10 -10 3 -10 -6 0 -18 7 -26 15 -13 13 -16 12 -22 -2 -5 -15 -7 -15 -15
-3 -7 10 -10 11 -10 2 0 -6 -3 -11 -7 -11 -21 3 -33 -2 -33 -15 0 -8 -8 -13
-17 -12 -10 0 -18 -5 -18 -12 0 -7 -20 -22 -44 -32 -53 -25 -54 -25 -41 -1 13
25 -4 38 -27 20 -12 -11 -17 -11 -27 2 -13 18 -50 13 -42 -6 2 -7 -6 -21 -20
-29 -18 -12 -24 -13 -24 -4 0 9 -3 8 -10 -2 -6 -9 -10 -10 -10 -3 0 6 7 19 16
28 17 17 11 71 -7 60 -5 -4 -16 -2 -24 5 -11 9 -12 7 -8 -11 5 -18 3 -21 -11
-16 -9 4 -15 3 -11 -2 10 -17 -13 -61 -30 -55 -8 3 -15 1 -15 -5 0 -6 -5 -11
-11 -11 -8 0 -8 4 -1 13 15 18 26 147 12 147 -6 0 -8 -4 -5 -10 3 -6 -1 -7 -9
-4 -19 7 -21 37 -3 52 9 7 12 52 11 165 -1 86 2 160 6 166 4 8 19 6 48 -5 46
-19 72 -9 72 27 0 26 40 60 62 53 10 -3 18 0 18 6 0 8 10 10 25 8 14 -3 26 0
27 6 0 6 3 -3 5 -21 3 -19 -3 -42 -13 -58z m-2823 -6 c-16 -41 -27 -86 -26
-101 2 -16 -1 -28 -7 -28 -5 0 -7 -8 -4 -17 19 -65 19 -75 0 -69 -22 7 -34 -1
-51 -30 -9 -17 -8 -24 4 -37 14 -13 13 -18 -8 -47 -27 -35 -27 -68 -1 -118 17
-32 16 -34 -5 -50 -25 -19 -51 -86 -59 -149 -5 -46 -32 -128 -33 -102 -1 22
-31 79 -41 79 -13 0 -17 59 -5 78 7 9 14 34 17 55 4 33 2 36 -16 31 -19 -6
-19 -6 -3 10 9 10 17 24 17 32 0 8 4 22 10 32 14 26 77 193 85 226 10 45 44
88 65 83 14 -3 17 1 16 19 0 15 -6 22 -13 20 -23 -9 -24 13 -1 36 22 22 46 59
68 107 6 13 13 21 16 19 2 -3 -8 -39 -25 -79z m2609 56 c-7 -9 -15 -13 -17
-11 -7 7 7 26 19 26 6 0 6 -6 -2 -15z m-3012 -35 c44 0 62 -14 62 -47 0 -13 6
-23 14 -23 7 0 19 -20 26 -45 11 -39 11 -47 -2 -58 -9 -7 -18 -31 -22 -54 -3
-24 -14 -58 -22 -77 -16 -33 -16 -35 5 -65 27 -37 41 -40 41 -6 0 14 4 25 9
25 6 0 6 -12 2 -27 -4 -16 -6 -34 -3 -42 2 -8 0 -11 -5 -8 -6 4 -10 -6 -9 -25
1 -21 -5 -34 -19 -42 -11 -6 -34 -19 -51 -30 -30 -19 -30 -20 -12 -38 23 -23
23 -39 -2 -68 -23 -26 -26 -38 -35 -121 -3 -31 -12 -65 -20 -75 -12 -17 -13
-15 -13 19 0 47 -3 50 -44 49 -46 -1 -52 7 -25 32 22 20 24 30 20 72 -2 27 -8
68 -14 92 -5 24 -7 47 -4 53 11 17 -5 48 -22 42 -11 -4 -14 -3 -9 6 4 6 16 9
25 6 10 -3 24 1 31 10 7 8 19 15 27 15 9 0 13 8 12 23 -2 12 7 41 19 64 12 23
22 52 22 63 0 19 -4 20 -37 15 -58 -10 -102 -25 -110 -38 -10 -15 -64 -40 -71
-33 -3 3 12 13 32 21 34 14 36 18 31 48 -6 30 -3 34 33 55 22 12 57 22 78 22
62 0 82 10 93 42 21 60 26 58 -156 54 -93 -2 -184 -7 -204 -11 -39 -7 -53 2
-43 29 4 12 10 13 18 7 8 -7 20 -6 37 2 91 46 168 72 215 71 42 0 51 3 47 15
-3 12 -1 11 7 -1 7 -12 24 -18 48 -18z m1892 -2 c0 -5 -5 -8 -11 -8 -5 0 -8
-4 -4 -10 3 -6 15 -6 29 0 24 9 36 5 36 -13 0 -5 -7 -7 -15 -4 -8 4 -17 2 -20
-3 -4 -6 0 -10 7 -10 9 -1 7 -5 -4 -14 -20 -14 -14 -28 8 -19 22 8 16 -13 -8
-30 l-23 -16 24 6 c17 4 22 3 17 -5 -4 -7 -16 -12 -26 -12 -10 0 -21 -4 -24
-9 -4 -5 3 -7 14 -4 19 5 19 4 4 -26 -18 -36 -29 -41 -19 -10 l7 22 -30 -22
c-17 -11 -34 -21 -39 -21 -5 0 -17 -16 -27 -35 -10 -19 -23 -32 -28 -29 -4 3
-6 10 -3 15 4 5 2 9 -4 9 -5 0 -13 -4 -16 -10 -3 -5 -12 -10 -18 -10 -7 0 -6
4 3 10 19 12 20 91 1 106 -11 9 -11 16 3 43 23 43 48 71 63 71 7 0 22 11 34
24 19 22 69 32 69 14z m667 -4 c-3 -3 -12 -4 -19 -1 -8 3 -5 6 6 6 11 1 17 -2
13 -5z m5003 -29 c-13 -14 -28 -25 -34 -25 -6 1 3 12 19 25 39 32 45 32 15 0z
m-6040 6 c17 -5 21 -9 12 -15 -6 -4 -12 -12 -12 -17 0 -6 5 -7 10 -4 6 3 10
-3 10 -14 0 -12 -3 -20 -7 -20 -31 5 -64 -5 -88 -25 -31 -26 -76 -122 -68
-143 3 -7 -2 -13 -11 -13 -11 0 -16 -9 -16 -30 0 -16 -4 -30 -10 -30 -5 0 -10
-8 -10 -18 0 -10 -6 -24 -12 -31 -11 -10 -9 -15 6 -27 17 -12 18 -17 6 -39
-12 -23 -11 -28 15 -55 42 -43 23 -49 -21 -6 -20 20 -40 36 -44 36 -4 0 -19
-9 -33 -20 -14 -11 -32 -20 -40 -20 -9 0 -18 -6 -21 -12 -4 -10 -2 29 3 51 1
2 9 -2 19 -10 16 -12 16 -12 0 6 -17 18 -17 20 10 32 22 10 23 12 4 7 -24 -6
-24 -5 -17 53 4 32 9 73 11 90 2 18 9 43 15 55 12 23 12 23 21 -7 4 -16 6 -42
2 -57 -3 -14 0 -29 5 -33 10 -6 15 7 12 28 0 4 3 7 9 7 18 0 32 78 20 118 -13
50 -13 52 10 52 18 0 60 35 60 50 0 4 -13 5 -30 2 -42 -6 -39 15 5 34 19 8 35
19 35 24 0 11 101 12 140 1z m-1870 -11 c0 -5 -4 -10 -10 -10 -5 0 -10 5 -10
10 0 6 5 10 10 10 6 0 10 -4 10 -10z m4970 -18 c-14 -5 -37 -33 -32 -40 5 -6
-28 -32 -51 -41 -39 -15 -50 5 -20 35 16 16 16 16 -5 10 -38 -12 -24 3 18 20
22 9 40 19 40 23 0 4 15 5 33 3 17 -3 25 -7 17 -10z m-350 -45 c0 -5 -8 -3
-17 4 -10 7 -20 14 -22 16 -1 1 0 7 5 14 5 9 11 7 21 -6 7 -11 13 -23 13 -28z
m3765 4 c-3 -6 -11 -11 -17 -11 -6 0 -6 6 2 15 14 17 26 13 15 -4z m-5640 -19
c-3 -3 -11 0 -18 7 -9 10 -8 11 6 5 10 -3 15 -9 12 -12z m481 0 c-33 -37 -76
-136 -76 -174 0 -40 36 -108 56 -108 18 0 25 -29 13 -52 -9 -16 -7 -26 8 -47
11 -14 29 -30 41 -36 12 -5 25 -18 28 -27 3 -10 11 -18 18 -18 8 0 19 -6 25
-14 9 -11 7 -15 -9 -19 -11 -3 -20 -11 -20 -19 0 -10 3 -9 10 2 7 11 10 12 10
2 0 -8 -9 -16 -19 -19 -11 -3 -22 -16 -25 -29 -4 -13 -11 -24 -17 -24 -6 0 -1
-13 10 -29 14 -19 36 -33 68 -41 26 -7 59 -21 73 -30 14 -9 43 -23 65 -32 22
-9 64 -26 93 -38 30 -11 61 -19 70 -17 13 4 12 5 -4 6 -24 1 -57 29 -62 51 -2
8 -8 18 -14 21 -5 4 -2 9 7 13 24 9 35 8 35 -4 0 -5 -8 -7 -17 -3 -10 3 -15 3
-11 -2 4 -4 30 -9 57 -10 40 -3 59 -10 90 -37 23 -18 41 -36 41 -40 0 -5 -18
-8 -41 -8 -26 0 -38 -4 -34 -11 4 -6 14 -8 22 -5 8 3 27 -1 44 -9 16 -9 29
-11 29 -5 0 5 -5 10 -12 10 -6 0 -8 3 -5 6 4 4 35 -12 69 -34 36 -23 86 -46
116 -53 68 -14 78 -7 13 10 -57 14 -140 79 -106 82 38 3 68 0 74 -10 3 -5 27
-12 53 -16 41 -6 46 -5 45 11 -1 11 6 20 17 22 13 3 16 0 11 -9 -13 -20 60 -4
96 21 54 39 129 140 184 249 58 113 81 148 91 138 3 -3 -7 -30 -24 -59 -137
-243 -152 -276 -152 -330 0 -29 4 -67 9 -85 13 -44 -9 -63 -38 -34 -12 12 -24
21 -28 21 -3 0 -14 7 -22 14 -11 10 -21 12 -31 6 -13 -8 -12 -10 3 -10 26 0
21 -11 -28 -59 -25 -24 -45 -48 -45 -52 0 -6 -38 -24 -72 -34 -5 -1 -9 -3 -10
-5 -11 -8 -60 -5 -93 6 -22 8 -52 14 -67 14 -15 0 -38 4 -53 10 -17 7 -24 7
-20 0 3 -6 -3 -10 -14 -10 -11 0 -32 -5 -46 -12 -21 -10 -28 -9 -35 2 -7 11
-11 8 -19 -13 -10 -27 -50 -45 -71 -32 -5 3 -13 -1 -16 -9 -7 -18 -24 -22 -24
-6 0 6 -5 17 -12 24 -10 10 -17 9 -37 -10 -13 -12 -30 -20 -37 -17 -8 3 -14
-2 -14 -11 0 -9 -3 -16 -8 -16 -4 0 -13 -13 -20 -28 -10 -25 -17 -28 -45 -24
-31 4 -31 3 -12 -12 11 -8 15 -16 9 -16 -6 0 -17 6 -23 13 -8 11 -5 19 14 37
26 25 25 40 -4 40 -24 0 -46 -26 -31 -35 15 -9 -19 -34 -47 -35 -13 0 -37 -9
-55 -20 -43 -26 -63 -25 -90 2 -13 13 -29 22 -36 20 -6 -2 -27 8 -45 21 -17
14 -50 34 -72 45 -22 11 -46 30 -53 41 -7 12 -17 21 -24 21 -6 0 -2 -10 10
-22 11 -13 23 -36 25 -53 2 -16 10 -29 16 -27 6 1 24 -9 39 -23 15 -14 30 -25
34 -25 5 0 8 -4 8 -10 0 -6 -10 -5 -25 2 -17 8 -29 8 -36 1 -6 -6 13 -19 58
-37 117 -47 199 -98 188 -117 -12 -18 15 -9 34 13 19 20 22 20 39 5 10 -9 23
-17 28 -17 9 -1 74 -56 74 -64 0 -3 -8 -6 -17 -8 -16 -3 -15 -6 5 -23 26 -23
29 -37 5 -28 -11 4 -14 3 -9 -5 5 -8 0 -12 -14 -12 -12 0 -19 -4 -15 -10 3 -5
-12 -18 -35 -29 -63 -31 -112 -13 -376 137 -51 29 -97 52 -103 52 -6 0 -11 5
-11 11 0 5 -15 16 -34 24 -19 8 -37 19 -40 24 -6 8 -42 34 -168 119 -25 17
-45 43 -62 82 -22 50 -25 64 -17 105 5 29 19 57 35 74 23 23 35 26 98 28 46 1
82 -4 100 -13 37 -19 58 -18 58 5 0 11 23 63 51 117 48 92 69 164 48 164 -17
0 -9 27 16 50 32 30 32 43 0 28 -17 -8 -28 -24 -36 -52 -5 -23 -18 -63 -28
-91 -11 -27 -25 -76 -32 -107 -6 -32 -16 -58 -21 -58 -4 0 -8 5 -8 11 0 8 -5
8 -15 -1 -12 -10 -15 -10 -15 3 0 9 5 19 10 22 6 3 10 13 10 22 0 12 -3 13
-14 4 -13 -11 -13 -5 -1 38 7 27 20 60 29 72 19 27 21 52 3 28 -14 -18 -47
-32 -47 -20 0 4 9 16 21 27 11 10 26 28 31 39 l11 20 -23 -20 c-33 -28 -80
-81 -115 -129 -74 -102 -98 -126 -127 -126 -32 0 -33 5 -13 40 19 33 19 46 0
30 -11 -9 -15 -9 -15 -1 0 6 8 15 18 18 9 4 19 9 22 13 11 13 71 52 84 54 12
2 65 43 129 102 7 6 22 16 35 23 12 6 22 16 22 21 0 6 10 21 23 36 12 14 22
29 23 32 0 10 72 83 119 123 31 26 35 27 16 6 -35 -39 -8 -33 38 8 41 38 81
111 87 159 2 16 13 45 24 63 11 19 20 36 20 39 0 10 -76 2 -91 -9 -10 -7 -36
-10 -70 -8 l-54 5 50 7 c83 11 162 35 192 57 35 26 52 28 29 4z m5328 -24
c-10 -16 -34 -7 -34 12 0 17 3 19 19 8 11 -7 17 -16 15 -20z m-3884 -12 c1 20
20 -23 20 -44 0 -23 -1 -23 -31 7 -30 30 -33 65 -3 40 8 -6 14 -8 14 -3z
m-2600 -17 c0 -5 -7 -9 -15 -9 -8 0 -15 -6 -15 -14 0 -8 -4 -18 -10 -21 -9 -6
2 34 16 57 6 10 24 1 24 -13z m7475 -58 c0 -48 0 -48 -22 -32 -25 17 -39 53
-28 70 3 6 16 11 28 11 20 0 22 -5 22 -49z m-9426 17 c-10 -20 -10 -21 2 -12
8 6 24 15 36 18 20 7 21 5 10 -23 -6 -16 -15 -28 -19 -25 -5 3 -15 -1 -23 -9
-16 -16 -55 -12 -67 7 -5 6 -8 2 -8 -11 0 -21 -1 -21 -30 -7 -17 9 -30 19 -30
23 0 13 36 42 43 34 4 -3 7 -2 7 4 0 5 16 10 36 11 20 1 39 4 42 7 12 11 12 4
1 -17z m2808 16 c-3 -3 -12 -4 -19 -1 -8 3 -5 6 6 6 11 1 17 -2 13 -5z m1857
-54 c7 0 21 -9 31 -20 22 -24 5 -27 -29 -5 -21 14 -24 14 -36 0 -28 -34 -33
-17 -15 49 l8 29 14 -27 c7 -14 20 -26 27 -26z m-2724 8 c0 -4 -7 -8 -15 -8
-8 0 -15 4 -15 8 0 5 7 9 15 9 8 0 15 -4 15 -9z m104 -12 c-3 -9 -10 -13 -15
-10 -5 3 -3 11 4 19 15 16 19 13 11 -9z m2456 14 c0 -5 -4 -10 -9 -10 -6 0
-13 5 -16 10 -3 6 1 10 9 10 9 0 16 -4 16 -10z m5251 -50 c22 -12 26 -50 5
-50 -15 0 -46 26 -46 39 0 8 11 21 17 21 3 0 13 -5 24 -10z m-7751 -10 c0 -5
-4 -10 -10 -10 -5 0 -10 5 -10 10 0 6 5 10 10 10 6 0 10 -4 10 -10z m7440 3
c0 -5 -4 -15 -10 -23 -11 -18 -25 -7 -17 15 6 15 27 21 27 8z m-4787 -36 c15
-23 35 -117 22 -105 -8 7 -44 106 -45 121 0 13 7 8 23 -16z m4517 -2 c11 -13
8 -15 -13 -15 -26 0 -42 12 -30 24 11 11 30 7 43 -9z m-6520 2 c0 -2 -9 -12
-19 -21 -19 -17 -19 -17 -14 3 3 12 12 21 19 21 8 0 14 -2 14 -3z m4690 -12
c-7 -9 -15 -13 -19 -10 -3 3 1 10 9 15 21 14 24 12 10 -5z m-455 -30 l18 -30
-21 19 c-12 11 -22 26 -22 34 0 17 -1 18 25 -23z m-5016 -6 c-9 -17 -8 -23 2
-30 16 -10 8 -12 -14 -3 -12 4 -12 10 -3 30 6 13 15 24 19 24 4 0 3 -10 -4
-21z m134 -30 c10 -9 16 -22 12 -28 -3 -6 -2 -11 4 -11 6 0 10 -16 9 -35 l-1
-36 -29 36 c-30 35 -52 47 -42 21 3 -9 -2 -16 -12 -18 -13 -2 -21 -19 -30 -63
-7 -34 -8 -62 -3 -65 5 -3 -3 -23 -18 -43 -30 -43 -55 -37 -35 8 7 15 8 24 2
20 -9 -6 -14 8 -11 28 0 4 -8 7 -18 7 -11 0 -23 5 -27 12 -4 6 -3 8 3 5 12 -7
27 20 24 41 -1 7 4 11 11 10 8 -2 13 6 13 20 0 12 -4 21 -10 20 -5 -2 -9 -9
-7 -15 2 -7 -2 -13 -8 -13 -5 0 -10 7 -10 16 0 17 23 44 38 44 12 0 58 50 46
50 -5 1 2 7 16 14 27 15 47 9 83 -25z m-1590 25 c7 -7 -14 -44 -25 -44 -5 0
-8 8 -8 18 0 27 18 41 33 26z m2338 -38 c-27 -29 -66 -42 -57 -20 4 9 -2 14
-17 14 -12 0 -28 4 -36 9 -11 7 -9 11 9 21 20 11 22 10 17 -4 -6 -15 -4 -15
24 -1 16 9 34 13 39 10 5 -3 12 0 15 6 5 8 10 8 18 0 8 -8 4 -18 -12 -35z
m6474 25 c-3 -10 1 -24 10 -31 22 -18 19 -39 -7 -49 -26 -9 -54 4 -61 30 -5
20 0 29 33 51 32 22 32 22 25 -1z m-6587 -59 c-13 -2 -28 -8 -33 -12 -6 -5
-21 0 -35 12 -16 13 -19 18 -7 14 22 -7 49 3 40 16 -3 6 9 2 26 -8 31 -18 32
-19 9 -22z m-2638 16 c0 -4 -7 -8 -15 -8 -8 0 -15 4 -15 8 0 5 7 9 15 9 8 0
15 -4 15 -9z m375 -8 c18 -20 17 -20 -8 -20 -20 0 -27 5 -27 20 0 11 4 20 8
20 5 0 17 -9 27 -20z m8703 -7 c-2 -12 -12 -18 -28 -18 -16 0 -26 6 -28 18 -3
13 3 17 28 17 25 0 31 -4 28 -17z m-6586 -7 c74 -32 208 -66 235 -60 16 4 25
4 22 0 -10 -11 -262 -47 -270 -39 -5 5 6 9 23 10 16 1 36 7 43 13 6 5 14 7 18
4 3 -3 25 -3 49 1 l43 8 -80 21 c-44 12 -93 29 -110 39 -37 20 -18 22 27 3z
m-6 -28 c36 -21 36 -22 13 -30 -14 -6 -32 -5 -46 1 -14 7 -24 7 -28 1 -4 -6
-11 -10 -17 -10 -20 0 14 30 36 31 11 0 15 3 9 6 -12 4 -19 23 -9 23 3 0 21
-10 42 -22z m694 -14 c0 -28 -17 -28 -34 -1 -8 13 -7 20 4 27 20 12 30 3 30
-26z m3640 -4 c0 -4 -12 -12 -26 -19 -15 -6 -24 -15 -20 -18 3 -3 1 -12 -5
-19 -6 -8 -9 -20 -6 -28 5 -12 -20 -32 -29 -23 -2 1 -6 31 -10 66 -4 45 -3 61
5 57 6 -4 11 -3 11 2 0 6 15 6 40 0 22 -6 40 -14 40 -18z m-6730 -20 c0 -5 -2
-10 -4 -10 -3 0 -8 5 -11 10 -3 6 -1 10 4 10 6 0 11 -4 11 -10z m1700 -12 c0
-16 -3 -19 -11 -11 -6 6 -8 16 -5 22 11 17 16 13 16 -11z m-253 -18 c-1 -3
-15 -30 -30 -61 -24 -49 -31 -55 -52 -51 -15 2 -22 9 -18 16 3 6 -3 2 -14 -9
-14 -13 -16 -22 -9 -27 7 -5 6 -8 -4 -8 -11 0 -11 -3 -2 -12 17 -17 15 -28 -7
-28 -14 0 -19 6 -16 20 2 11 -1 20 -7 20 -15 0 -2 42 30 94 31 52 84 81 114
62 10 -6 17 -13 15 -16z m283 20 c0 -5 -2 -10 -4 -10 -3 0 -8 5 -11 10 -3 6
-1 10 4 10 6 0 11 -4 11 -10z m-780 -28 c0 -4 -9 -8 -20 -9 -11 -1 -20 2 -20
8 0 5 9 9 20 9 11 0 20 -4 20 -8z m1514 -24 c-18 -21 -17 -20 15 2 19 13 31
18 26 11 -6 -11 -2 -12 21 -7 50 13 14 -9 -73 -43 -88 -35 -149 -40 -80 -7 21
10 43 26 50 36 11 16 31 27 51 29 5 1 1 -9 -10 -21z m156 -13 c-39 -40 -60
-47 -33 -11 15 21 46 43 62 45 3 1 -10 -15 -29 -34z m-1645 15 c-3 -5 -11 -10
-16 -10 -6 0 -7 5 -4 10 3 6 11 10 16 10 6 0 7 -4 4 -10z m875 -56 c0 -3 -7
-13 -16 -21 -13 -13 -13 -17 -2 -24 11 -7 11 -9 -1 -9 -7 0 -11 -6 -8 -14 3
-8 1 -16 -5 -18 -6 -2 -4 -10 6 -20 15 -16 15 -17 -4 -15 -11 1 -21 5 -21 9
-1 4 -2 12 -3 17 0 5 -4 12 -8 16 -9 10 1 36 25 63 19 21 37 29 37 16z m710
-8 c0 -4 -60 -50 -188 -144 -18 -13 -35 -22 -38 -20 -4 5 74 63 114 86 31 17
23 26 -12 13 -14 -6 -26 -7 -26 -3 0 4 21 14 48 21 26 8 58 22 71 33 24 18 31
21 31 14z m3925 -34 c-6 -7 -35 18 -35 31 0 5 9 2 20 -8 11 -10 18 -20 15 -23z
m165 28 c0 -5 -5 -10 -11 -10 -5 0 -7 5 -4 10 3 6 8 10 11 10 2 0 4 -4 4 -10z
m-6650 -8 c0 -13 -12 -22 -22 -16 -10 6 -1 24 13 24 5 0 9 -4 9 -8z m940 -12
c0 -5 -4 -10 -10 -10 -5 0 -7 -8 -4 -17 5 -15 4 -16 -5 -3 -15 21 -13 40 4 40
8 0 15 -4 15 -10z m124 -2 c24 -25 26 -48 6 -68 -13 -13 -20 -15 -24 -7 -2 7
-5 4 -5 -5 -1 -10 4 -18 10 -18 6 0 7 -5 2 -12 -12 -20 -12 -38 0 -35 5 1 11
-10 12 -25 1 -16 -3 -28 -9 -28 -6 0 -4 -5 4 -10 13 -9 13 -11 1 -19 -8 -5
-16 -19 -18 -30 -2 -16 1 -19 15 -14 16 6 16 6 0 -10 -21 -21 -36 -21 -60 0
-12 10 -18 12 -18 4 0 -16 -37 -5 -60 18 -24 23 -30 47 -17 60 9 9 3 10 -23 6
-29 -5 -31 -4 -12 4 24 11 31 24 7 15 -9 -4 -15 0 -15 9 0 8 -5 17 -11 19 -7
2 0 17 15 35 31 37 33 47 6 40 -13 -3 -20 0 -20 9 0 21 29 29 61 17 36 -14 77
-5 84 18 7 21 31 26 38 7 2 -7 8 -9 13 -5 5 5 1 15 -10 23 -18 13 -18 14 -2
14 9 0 23 -6 30 -12z m311 -28 c-3 -5 -14 -10 -23 -9 -14 0 -13 2 3 9 27 11
27 11 20 0z m57 -42 c-7 -7 -12 -8 -12 -2 0 14 12 26 19 19 2 -3 -1 -11 -7
-17z m5038 12 c0 -5 -5 -10 -11 -10 -5 0 -7 5 -4 10 3 6 8 10 11 10 2 0 4 -4
4 -10z m-5182 -63 c-20 -18 -68 -32 -68 -20 0 2 14 19 32 37 27 29 34 32 46
19 12 -12 11 -17 -10 -36z m3707 24 c24 -12 26 -15 12 -19 -23 -5 -70 25 -61
40 4 5 9 6 13 1 3 -4 20 -15 36 -22z m-3120 -1 c-3 -5 -12 -10 -18 -10 -7 0
-6 4 3 10 19 12 23 12 15 0z m-468 -14 c-3 -8 1 -17 9 -20 20 -8 17 -23 -6
-29 -13 -3 -20 -14 -20 -30 0 -16 -10 -33 -27 -46 -22 -15 -23 -19 -8 -15 15
4 23 -2 31 -25 12 -31 3 -51 -23 -51 -7 0 -13 -4 -13 -10 0 -5 -7 -10 -16 -10
-14 0 -14 3 -4 15 11 13 8 15 -18 15 -32 0 -51 24 -26 34 8 3 14 12 14 20 0 8
8 19 17 25 10 5 15 13 11 17 -4 4 -14 1 -23 -6 -10 -8 -15 -9 -15 -1 0 6 4 11
9 11 5 0 11 7 14 15 5 12 2 12 -19 3 -13 -6 -27 -8 -32 -3 -4 4 -1 10 6 12 6
3 12 15 12 28 0 13 5 27 10 30 10 6 14 -7 11 -32 -2 -16 15 -17 25 -2 5 8 9 7
14 -1 11 -18 41 -4 34 15 -4 9 2 25 11 35 21 24 29 26 22 6z m-1360 -28 c-6
-4 -16 -3 -22 3 -6 6 -5 13 5 19 9 6 17 5 22 -3 4 -6 2 -15 -5 -19z m297 26
c24 -9 20 -55 -4 -61 -11 -3 -18 -9 -15 -13 3 -5 0 -12 -6 -16 -6 -3 -15 0
-20 7 -5 8 -9 10 -9 5 0 -5 -7 -3 -15 4 -12 10 -11 17 13 46 29 36 31 37 56
28z m1491 -4 c3 -5 2 -10 -4 -10 -5 0 -13 5 -16 10 -3 6 -2 10 4 10 5 0 13 -4
16 -10z m705 0 c0 -13 -11 -13 -30 0 -12 8 -11 10 8 10 12 0 22 -4 22 -10z
m-1200 -20 c0 -5 -5 -10 -11 -10 -5 0 -7 5 -4 10 3 6 8 10 11 10 2 0 4 -4 4
-10z m970 -15 c0 -2 -10 -10 -22 -16 -21 -11 -22 -11 -9 4 13 16 31 23 31 12z
m-1475 -15 c3 -6 -1 -7 -9 -4 -18 7 -21 14 -7 14 6 0 13 -4 16 -10z m-467 -87
c2 -8 -5 -13 -17 -13 -12 0 -21 6 -21 16 0 18 31 15 38 -3z m1510 -63 c7 -11
9 -20 4 -20 -4 0 -15 9 -25 20 -11 14 -13 20 -4 20 7 0 18 -9 25 -20z m-821
-27 c3 -7 -3 -9 -16 -6 -12 3 -21 10 -21 15 0 13 32 6 37 -9z m327 -5 c-5 -8
-2 -9 10 -5 9 4 14 3 11 -2 -3 -5 -1 -12 4 -16 12 -7 3 -35 -11 -35 -5 0 -6 4
-3 10 3 5 -5 15 -19 22 -28 12 -33 24 -13 31 21 9 28 7 21 -5z m336 8 c0 -3
-4 -8 -10 -11 -5 -3 -10 -1 -10 4 0 6 5 11 10 11 6 0 10 -2 10 -4z m140 -6 c0
-5 -5 -10 -11 -10 -5 0 -7 5 -4 10 3 6 8 10 11 10 2 0 4 -4 4 -10z m3547 -26
c-3 -3 -12 -4 -19 -1 -8 3 -5 6 6 6 11 1 17 -2 13 -5z m-42 -14 c-3 -5 -13
-10 -21 -10 -8 0 -12 5 -9 10 3 6 13 10 21 10 8 0 12 -4 9 -10z m315 -30 c0
-5 -2 -10 -4 -10 -3 0 -8 5 -11 10 -3 6 -1 10 4 10 6 0 11 -4 11 -10z m115
-20 c3 -6 -1 -7 -9 -4 -18 7 -21 14 -7 14 6 0 13 -4 16 -10z m-335 -19 c-8 -5
-31 -12 -50 -15 -35 -7 -35 -7 -10 8 14 9 36 15 50 15 19 0 21 -2 10 -8z
m-100 -31 c-18 -12 -43 -13 -36 -2 2 4 15 8 28 9 18 2 19 0 8 -7z m-4748 -92
c15 -4 78 -67 78 -79 0 -5 10 -9 23 -9 21 -1 21 -1 -5 -21 -16 -11 -28 -30
-28 -40 0 -11 -4 -17 -10 -14 -5 3 -10 15 -10 26 0 11 -11 31 -25 45 -14 14
-25 27 -25 30 0 8 -55 89 -63 92 -4 2 -4 9 0 14 4 7 15 1 29 -15 12 -15 29
-28 36 -29z m4498 48 c0 -2 -9 -6 -20 -9 -11 -3 -18 -1 -14 4 5 9 34 13 34 5z
m-2817 -101 c-5 -13 -23 -22 -23 -11 0 15 14 35 21 31 4 -3 6 -12 2 -20z
m3541 17 c2 -4 -3 -13 -13 -19 -13 -8 -17 -7 -17 8 0 19 20 26 30 11z m-326
-57 c6 -29 64 -74 101 -77 36 -3 49 -14 33 -30 -12 -12 13 -67 34 -75 8 -3 14
-9 14 -14 0 -4 -7 -6 -15 -3 -8 4 -23 3 -32 -1 -16 -7 -14 -9 7 -15 19 -5 12
-8 -34 -13 -33 -4 -66 -13 -73 -19 -7 -6 -27 -12 -43 -14 -37 -4 -57 22 -67
93 l-8 50 -53 -17 c-29 -10 -70 -20 -90 -23 l-37 -5 30 13 c17 8 62 21 102 30
39 9 73 22 75 28 3 7 4 32 4 57 -1 25 4 48 9 52 17 13 40 4 43 -17z m-318 -10
c0 -7 -111 -37 -117 -32 -2 3 17 12 44 20 52 16 73 20 73 12z m205 -19 c-29
-19 -123 -49 -138 -43 -8 4 -7 6 3 6 8 1 42 12 75 26 67 27 89 32 60 11z
m-5015 -46 c-8 -5 -22 -9 -30 -9 -10 0 -8 3 5 9 27 12 43 12 25 0z m1800 -10
c0 -5 -5 -10 -11 -10 -5 0 -7 5 -4 10 3 6 8 10 11 10 2 0 4 -4 4 -10z m3075
-40 c-3 -5 -12 -10 -18 -10 -7 0 -6 4 3 10 19 12 23 12 15 0z m-4930 -20 c-3
-5 -18 -10 -33 -10 -21 0 -24 2 -12 10 20 13 53 13 45 0z m413 -25 c-3 -3 -9
2 -12 12 -6 14 -5 15 5 6 7 -7 10 -15 7 -18z m1221 -74 c-15 -5 -22 6 -14 19
6 9 10 9 16 -1 5 -8 4 -15 -2 -18z m-1404 -1 c-44 -20 -75 -26 -59 -11 9 9 70
29 89 29 6 0 -8 -8 -30 -18z m-225 -10 c-8 -5 -19 -10 -25 -10 -5 0 -3 5 5 10
8 5 20 10 25 10 6 0 3 -5 -5 -10z m4675 -10 c-3 -5 -11 -10 -16 -10 -6 0 -7 5
-4 10 3 6 11 10 16 10 6 0 7 -4 4 -10z m-4335 -7 c0 -1 -21 -9 -47 -17 -27 -8
-93 -31 -148 -50 -99 -36 -145 -44 -145 -27 0 4 17 11 37 14 73 12 183 51 179
64 -3 6 3 13 12 15 20 4 112 5 112 1z m2548 -5 c8 -8 15 -8 24 0 10 7 19 5 37
-10 19 -15 22 -21 12 -27 -7 -5 -21 -7 -30 -4 -10 2 -23 -3 -30 -11 -8 -10
-23 -14 -37 -11 -13 3 -35 7 -49 10 -15 3 -23 10 -19 16 3 6 16 9 28 6 11 -2
32 -1 46 3 16 5 19 8 8 9 -10 1 -18 8 -18 16 0 18 12 19 28 3z m-2768 -9 c-11
-8 -7 -9 18 -5 17 3 32 2 32 -2 0 -9 -129 -52 -157 -52 -12 0 -23 -7 -25 -17
-2 -13 -6 -10 -15 10 -12 26 -11 27 30 38 23 6 54 12 69 12 15 0 25 4 22 8 -4
7 12 17 31 18 6 0 3 -4 -5 -10z m1610 -7 c25 -20 20 -42 -8 -42 -9 0 -27 11
-40 24 -23 25 -22 27 19 35 4 0 17 -7 29 -17z m-1440 -36 c0 -2 -11 -6 -25 -8
-13 -3 -22 -1 -19 3 5 9 44 13 44 5z m-75 -14 c-17 -15 -94 -42 -118 -41 -21
0 -21 1 3 11 20 8 59 20 120 37 2 0 0 -3 -5 -7z m5025 -2 c0 -5 -6 -10 -14
-10 -8 0 -18 5 -21 10 -3 6 3 10 14 10 12 0 21 -4 21 -10z m-4767 -10 c-12 -5
-49 -14 -83 -20 -34 -6 -102 -27 -152 -46 -51 -19 -99 -33 -107 -31 -13 3 -12
5 4 11 11 4 56 23 100 42 91 39 139 50 210 52 38 0 45 -2 28 -8z m1087 -12 c0
17 6 22 28 22 15 0 33 -5 40 -12 7 -7 12 -9 12 -6 0 3 20 2 44 -3 45 -8 71
-24 109 -66 11 -13 25 -23 31 -23 6 0 27 -17 46 -37 19 -20 27 -31 18 -24 -9
7 -22 10 -29 6 -6 -4 -33 -7 -60 -6 -27 0 -49 -4 -49 -9 0 -6 -14 -10 -31 -10
-37 0 -30 -16 11 -25 39 -9 38 -24 -5 -70 -40 -42 -39 -52 2 -38 24 9 31 7 45
-12 18 -23 8 -45 -19 -45 -7 0 -13 -4 -13 -9 0 -5 -16 -16 -35 -25 -57 -27
-38 -55 38 -57 29 -2 54 -9 65 -20 13 -11 24 -14 33 -8 15 10 69 12 69 3 0
-18 -24 -43 -52 -54 -18 -8 -41 -22 -52 -32 -10 -11 -24 -17 -32 -14 -8 3 -14
-1 -14 -9 0 -14 27 -18 128 -19 29 0 23 -18 -9 -27 l-24 -7 26 -1 c34 -1 80
34 72 55 -3 9 0 20 8 25 23 15 31 10 13 -8 -11 -12 -13 -18 -5 -21 15 -5 41
16 41 34 0 7 11 25 25 40 20 22 29 25 52 19 15 -5 42 -7 58 -6 17 1 26 -2 20
-6 -16 -13 -16 -33 0 -33 18 0 18 -1 1 -35 -11 -20 -12 -34 -4 -50 12 -26 -6
-74 -57 -151 -47 -70 -96 -111 -180 -149 -112 -51 -165 -59 -410 -59 -196 -1
-228 1 -291 20 -94 29 -140 54 -200 107 -59 53 -102 149 -109 242 -3 31 -7 61
-11 66 -3 6 5 33 19 62 14 29 37 78 52 110 18 38 36 61 51 67 14 6 24 18 24
29 0 11 5 23 10 26 6 3 10 15 10 26 0 10 4 19 9 19 5 0 22 14 38 30 15 17 44
41 63 53 19 12 44 32 55 45 13 15 39 27 69 33 27 5 63 16 80 25 17 9 54 22 81
29 46 11 52 11 73 -8 l22 -20 0 21z m-930 -43 c0 -2 -12 -12 -27 -20 -24 -14
-25 -16 -6 -12 34 7 37 -9 5 -21 -77 -28 -130 -46 -186 -63 -90 -27 -45 1 64
40 94 34 112 45 58 34 -18 -3 -30 -3 -27 1 4 4 85 36 117 45 1 1 2 -1 2 -4z
m-185 -14 c-14 -12 -137 -52 -143 -46 -5 5 -5 5 78 34 62 22 79 25 65 12z
m-334 -66 c-38 -17 -60 -20 -45 -6 9 9 38 18 64 19 8 1 0 -5 -19 -13z m219
-14 c0 -13 -166 -65 -185 -58 -8 4 -17 2 -20 -3 -3 -5 -12 -7 -20 -4 -8 4 -12
10 -9 15 3 5 0 9 -6 9 -6 0 -8 5 -5 10 9 15 36 12 58 -7 11 -10 17 -13 14 -7
-4 7 11 16 41 24 26 7 58 16 72 20 34 12 60 12 60 1z m4660 -7 c0 -8 -71 -36
-78 -30 -3 3 10 12 29 20 37 17 49 19 49 10z m-4300 -33 c0 -5 -105 -44 -232
-87 -302 -102 -309 -104 -302 -92 4 6 0 14 -7 19 -23 14 4 31 58 35 l48 5 -45
-21 c-69 -32 0 -15 80 19 36 16 97 37 135 47 39 10 106 33 150 51 81 33 115
40 115 24z m4173 -21 c-24 -11 -60 -22 -80 -25 -32 -5 -29 -2 22 19 71 28 120
33 58 6z m-3897 -32 c4 -7 4 -10 0 -7 -8 8 -186 -50 -237 -77 -28 -14 -194
-74 -206 -74 -3 0 -1 5 2 10 9 14 -1 13 -94 -14 -46 -14 -90 -22 -97 -19 -7 3
-40 -5 -74 -16 -65 -23 -90 -27 -74 -12 5 5 41 17 79 27 39 9 102 27 140 40
99 33 182 55 225 60 20 2 97 24 171 49 148 49 155 50 165 33z m1041 -54 l22
-34 -22 11 c-25 14 -37 28 -37 47 0 21 14 12 37 -24z m-1472 0 c-38 -13 -74
-23 -79 -21 -11 4 113 46 134 46 8 0 -16 -11 -55 -25z m405 -94 c0 -5 -1 -10
-3 -10 -1 0 -69 -22 -151 -50 -82 -27 -158 -50 -170 -50 -19 0 -194 -56 -325
-105 -52 -19 -67 -12 -20 9 l34 15 -30 -5 c-61 -9 46 32 145 56 79 20 149 44
249 87 9 4 12 2 7 -5 -10 -16 -6 -16 71 14 137 53 193 66 193 44z m1140 -15
c0 -8 11 -22 25 -31 14 -9 25 -20 25 -25 0 -15 -57 18 -64 36 -9 25 -7 47 4
40 6 -3 10 -13 10 -20z m2920 5 c0 -5 -5 -10 -11 -10 -5 0 -7 5 -4 10 3 6 8
10 11 10 2 0 4 -4 4 -10z m-3086 -44 c-10 -26 -106 -25 -111 1 -2 7 14 11 43
11 25 0 48 3 51 6 10 10 22 -4 17 -18z m85 -38 c1 -5 -3 -8 -9 -8 -5 0 -10 12
-9 28 0 24 1 25 9 7 5 -11 9 -23 9 -27z m-1099 12 c0 -5 -93 -39 -207 -75
-115 -36 -215 -68 -223 -71 -8 -3 -11 -2 -7 2 7 7 16 11 272 99 173 60 165 58
165 45z m-520 -14 c0 -8 -163 -67 -174 -63 -6 2 16 14 49 26 33 12 69 26 80
31 21 9 45 13 45 6z m365 -11 c-16 -8 -37 -14 -45 -14 -8 0 1 7 20 14 46 18
64 17 25 0z m-175 -49 c0 -2 -37 -16 -82 -30 -46 -15 -91 -31 -101 -37 -17 -9
-37 -5 -26 5 2 2 42 18 89 34 78 28 120 38 120 28z m306 -41 c-11 -8 -25 -15
-30 -16 -6 -1 -1 -4 11 -7 16 -5 20 -11 14 -21 -6 -9 -33 -14 -86 -15 l-78 -2
39 18 c134 61 169 72 130 43z m-321 -45 c-27 -12 -43 -12 -25 0 8 5 22 9 30 9
10 0 8 -3 -5 -9z m-155 -10 c-8 -5 -19 -10 -25 -10 -5 0 -3 5 5 10 8 5 20 10
25 10 6 0 3 -5 -5 -10z m380 -19 c0 -10 -54 -31 -79 -31 -9 0 2 9 24 19 47 22
55 24 55 12z m-103 -57 c-3 -3 -12 -4 -19 -1 -8 3 -5 6 6 6 11 1 17 -2 13 -5z
m183 -35 c-62 -35 -194 -89 -213 -88 -6 0 6 9 28 20 54 25 29 24 -40 -2 -30
-11 -55 -25 -55 -31 0 -6 -3 -9 -6 -6 -3 3 -29 -1 -57 -8 -29 -8 -76 -16 -105
-18 -79 -6 -50 14 35 24 37 4 100 20 138 35 149 57 291 105 310 105 13 0 -1
-12 -35 -31z m-210 -5 c0 -9 -68 -34 -92 -34 -17 1 -13 5 15 15 21 7 41 16 44
19 8 8 33 8 33 0z m275 -23 c-6 -5 -23 -12 -40 -16 l-30 -6 25 15 c28 17 60
22 45 7z m-1145 -11 c0 -5 -5 -10 -11 -10 -5 0 -7 5 -4 10 3 6 8 10 11 10 2 0
4 -4 4 -10z m720 -15 c-46 -18 -64 -17 -25 0 17 8 37 14 45 14 8 0 -1 -7 -20
-14z m-720 -15 c0 -5 -2 -10 -4 -10 -3 0 -8 5 -11 10 -3 6 -1 10 4 10 6 0 11
-4 11 -10z m640 -14 c-30 -17 -98 -32 -87 -20 10 10 74 32 97 33 8 0 4 -6 -10
-13z m-613 -12 c-3 -3 -12 -4 -19 -1 -8 3 -5 6 6 6 11 1 17 -2 13 -5z m1079
-34 c-39 -20 -76 -27 -62 -12 10 10 67 30 86 31 8 0 -3 -9 -24 -19z m-301 -9
c-12 -12 -65 -26 -65 -17 0 3 15 10 33 15 43 12 42 12 32 2z m-675 -21 c0 -5
-5 -10 -11 -10 -5 0 -7 5 -4 10 3 6 8 10 11 10 2 0 4 -4 4 -10z m720 2 c0 -16
-81 -42 -99 -32 -14 8 -14 9 4 15 11 4 29 10 40 15 26 11 55 12 55 2z m178 3
c-2 -3 -38 -16 -79 -30 -40 -14 -68 -20 -61 -13 15 15 98 46 126 47 11 1 17
-1 14 -4z m-968 -35 c0 -5 -4 -10 -10 -10 -5 0 -10 5 -10 10 0 6 5 10 10 10 6
0 10 -4 10 -10z m1120 -40 c-8 -5 -19 -10 -25 -10 -5 0 -3 5 5 10 8 5 20 10
25 10 6 0 3 -5 -5 -10z m-54 -22 c-41 -23 -176 -54 -176 -40 0 5 30 14 68 21
37 8 74 17 82 22 8 5 22 8 30 8 11 0 10 -3 -4 -11z m-414 -30 c-6 -6 -15 -8
-19 -4 -4 4 -1 11 7 16 19 12 27 3 12 -12z m-562 -68 c0 -5 -7 -10 -16 -10 -8
0 -12 5 -9 10 3 6 10 10 16 10 5 0 9 -4 9 -10z m1055 -15 c-40 -19 -67 -18
-35 0 14 8 34 14 45 14 15 -1 13 -4 -10 -14z m4050 6 c-6 -5 -23 -12 -40 -14
-16 -3 45 -2 136 0 l167 6 5 -29 c16 -84 18 -141 4 -152 -14 -12 -381 -41
-530 -42 l-47 0 2 -97 3 -96 -30 -8 c-16 -5 -162 -15 -325 -24 -373 -19 -460
-20 -460 -4 0 11 -60 17 -66 7 -4 -5 -13 -7 -21 -4 -8 3 -11 2 -8 -3 3 -5 1
-12 -5 -16 -5 -3 -10 -2 -10 3 0 12 -64 11 -72 -2 -5 -7 -14 -6 -30 2 -32 17
-77 12 -71 -8 4 -11 1 -11 -10 2 -17 22 -41 24 -33 3 7 -20 -4 -19 -19 1 -13
19 -60 10 -49 -8 4 -6 3 -8 -3 -5 -5 3 -35 9 -66 12 -42 4 -57 2 -57 -7 0 -10
-3 -9 -9 1 -7 10 -27 12 -87 7 -44 -3 -137 -8 -209 -11 -71 -2 -195 -8 -275
-12 -80 -4 -194 -8 -255 -8 -62 0 -113 -4 -117 -10 -5 -6 -8 -5 -8 2 0 9 -19
11 -72 7 -158 -13 -218 -6 -181 22 17 13 17 13 -2 14 -17 0 -15 3 10 20 24 16
26 20 11 20 -32 0 22 46 69 59 45 12 325 35 635 51 113 6 210 13 215 15 6 2
-51 4 -125 5 -74 1 -165 3 -202 4 -38 1 -68 -1 -68 -6 0 -9 -62 2 -70 12 -3 3
-27 8 -55 9 -27 1 -53 7 -56 13 -4 6 -24 11 -45 12 -57 2 -58 29 -2 45 137 41
459 65 1528 111 404 17 484 23 535 40 33 10 104 22 158 26 53 3 132 14 175 24
86 20 151 25 137 11z m-5080 -41 c-3 -5 -10 -10 -16 -10 -5 0 -9 5 -9 10 0 6
7 10 16 10 8 0 12 -4 9 -10z m-25 -30 c0 -5 -8 -10 -17 -10 -15 0 -16 2 -3 10
19 12 20 12 20 0z m955 -39 c-3 -5 -30 -17 -60 -26 -30 -8 -62 -18 -72 -21
-15 -5 -15 -3 2 7 15 10 70 29 133 48 2 1 1 -3 -3 -8z m140 -1 c-3 -5 -12 -10
-18 -10 -7 0 -6 4 3 10 19 12 23 12 15 0z m-480 -29 c-12 -12 -65 -26 -65 -17
0 3 15 10 33 15 43 12 42 12 32 2z m1325 -391 c-6 -11 -15 -20 -21 -20 -6 0
-7 5 -4 10 3 6 -2 10 -12 11 -16 0 -16 1 2 9 36 15 47 12 35 -10z m-53 -16
c-3 -3 -12 -4 -19 -1 -8 3 -5 6 6 6 11 1 17 -2 13 -5z"/>
<path d="M9930 6601 c0 -6 4 -12 8 -15 5 -3 9 1 9 9 0 8 -4 15 -9 15 -4 0 -8
-4 -8 -9z"/>
<path d="M9960 6600 c0 -5 5 -10 11 -10 5 0 7 5 4 10 -3 6 -8 10 -11 10 -2 0
-4 -4 -4 -10z"/>
<path d="M9785 6450 c3 -5 8 -10 11 -10 2 0 4 5 4 10 0 6 -5 10 -11 10 -5 0
-7 -4 -4 -10z"/>
<path d="M6370 6135 c0 -42 16 -56 45 -43 13 6 25 19 28 29 4 16 2 17 -16 8
-17 -10 -23 -7 -38 12 l-19 24 0 -30z"/>
<path d="M6125 5960 c-11 -50 22 -110 47 -84 7 6 -20 94 -32 107 -5 5 -11 -5
-15 -23z"/>
<path d="M6415 5900 c-6 -9 13 -25 21 -17 8 8 88 -78 91 -98 4 -26 69 -82 111
-96 18 -6 35 -9 37 -7 8 8 -105 113 -117 110 -7 -2 -10 -1 -6 3 11 11 -11 61
-38 86 -24 23 -89 36 -99 19z"/>
<path d="M7050 5836 c0 -2 7 -9 15 -16 9 -7 15 -8 15 -2 0 5 -7 12 -15 16 -8
3 -15 4 -15 2z"/>
<path d="M7382 6069 c-2 -34 1 -41 22 -49 13 -5 27 -14 31 -19 3 -6 15 -11 25
-11 17 0 18 3 9 28 -11 29 -44 69 -69 82 -12 6 -16 0 -18 -31z"/>
<path d="M5790 5511 c0 -13 29 -35 37 -28 7 8 -15 37 -28 37 -5 0 -9 -4 -9 -9z"/>
<path d="M5350 5460 c0 -11 7 -20 15 -20 8 0 15 6 15 14 0 8 -7 16 -15 20 -10
4 -15 -1 -15 -14z"/>
<path d="M5320 5394 c0 -8 -4 -13 -9 -10 -5 3 -11 -1 -14 -8 -5 -11 -22 -14
-81 -10 -120 6 -112 -4 56 -79 l57 -25 20 34 c26 43 26 40 1 72 -16 20 -18 27
-8 34 10 6 8 8 -4 8 -10 0 -18 -7 -18 -16z"/>
<path d="M5420 5360 c-11 -7 -10 -13 4 -34 22 -34 36 -33 36 3 0 31 -18 45
-40 31z"/>
<path d="M5450 5250 c0 -11 4 -20 9 -20 5 0 7 9 4 20 -3 11 -7 20 -9 20 -2 0
-4 -9 -4 -20z"/>
<path d="M4190 4654 c0 -8 5 -12 10 -9 6 4 8 11 5 16 -9 14 -15 11 -15 -7z"/>
<path d="M3877 4595 c-16 -6 -32 -17 -36 -23 -4 -7 -19 -13 -34 -14 -15 -1
-27 -5 -27 -9 0 -4 -9 -5 -20 -2 -11 3 -20 1 -20 -4 0 -8 -30 -12 -127 -16
-18 -1 -33 -6 -33 -10 0 -5 -7 -6 -16 -3 -8 3 -12 2 -9 -4 3 -5 -4 -8 -15 -7
-11 1 -20 6 -20 12 0 5 -5 3 -10 -5 -7 -11 -10 -12 -10 -2 0 10 -4 9 -16 -3
-9 -9 -23 -14 -30 -11 -7 3 -16 1 -19 -4 -4 -6 -16 -10 -28 -10 -12 -1 -37 -9
-56 -19 l-34 -18 29 -19 c16 -10 33 -24 37 -31 11 -17 30 -16 75 4 20 9 40 17
44 17 3 1 10 4 14 8 3 4 -3 6 -15 3 -13 -2 -21 1 -21 10 0 19 59 36 109 31 51
-5 145 16 169 37 11 10 23 13 31 8 9 -6 10 -11 2 -15 -6 -4 -11 -4 -11 1 0 4
-5 1 -10 -7 -5 -8 -10 -35 -10 -60 -1 -44 -1 -44 -17 -22 -20 28 -39 28 -46 0
-6 -23 19 -155 53 -273 11 -39 20 -90 20 -115 l1 -45 15 28 c30 55 58 78 114
93 109 30 175 56 193 76 21 25 22 48 2 48 -23 0 -18 13 12 30 23 13 28 23 28
53 0 39 -5 43 -36 27 -26 -14 -24 -1 6 40 28 38 32 60 10 60 -12 0 -13 4 -3
26 10 21 9 27 -3 35 -10 6 -11 9 -1 9 7 0 10 5 7 10 -4 6 -2 17 5 24 17 21
-60 19 -83 -2 -16 -14 -19 -14 -27 -2 -8 13 -13 13 -37 0 -30 -17 -38 -31 -82
-140 -36 -90 -56 -105 -48 -35 3 27 1 56 -4 64 -13 25 -27 111 -19 116 5 3 10
0 12 -6 3 -9 16 -8 49 3 37 13 44 19 42 39 -1 13 1 18 4 11 4 -10 8 -10 18 -2
8 6 26 15 42 20 l28 8 -25 1 c-15 1 -31 -4 -37 -10 -7 -7 -17 -8 -29 -1 -13 6
-29 5 -47 -3z"/>
<path d="M3546 4565 c4 -8 8 -15 10 -15 2 0 4 7 4 15 0 8 -4 15 -10 15 -5 0
-7 -7 -4 -15z"/>
<path d="M4320 4558 c31 -33 26 -53 -5 -21 -13 12 -19 13 -24 4 -6 -9 -11 -9
-20 2 -7 9 -24 13 -43 11 -17 -2 -37 1 -45 7 -7 7 -16 10 -18 7 -8 -8 65 -79
75 -73 12 7 40 -5 40 -17 0 -6 -6 -5 -15 2 -8 7 -15 8 -15 3 0 -8 22 -21 76
-45 22 -10 96 -92 86 -96 -7 -2 -12 -12 -12 -23 0 -11 -7 -22 -16 -26 -15 -6
-15 -8 2 -20 10 -7 28 -13 41 -13 31 0 78 -25 96 -50 13 -19 15 -19 31 17 9
21 18 64 20 95 3 32 7 62 10 67 4 5 0 12 -6 14 -10 4 -9 6 1 6 11 1 11 4 1 16
-9 10 -9 15 -1 15 19 0 12 28 -11 44 -30 21 -45 20 -51 -4 -4 -17 -10 -19 -34
-14 -15 4 -40 7 -55 8 -16 0 -28 4 -28 9 0 10 -83 97 -93 97 -4 0 1 -10 13
-22z m-86 -24 c3 -8 2 -12 -4 -9 -6 3 -10 10 -10 16 0 14 7 11 14 -7z m276
-134 c0 -5 -5 -10 -11 -10 -5 0 -7 5 -4 10 3 6 8 10 11 10 2 0 4 -4 4 -10z
m40 -44 c0 -18 -16 -29 -30 -21 -13 8 -1 35 16 35 8 0 14 -6 14 -14z"/>
<path d="M4181 4386 l-22 -23 23 -14 c60 -38 118 -51 118 -26 -1 22 -29 50
-44 44 -11 -4 -18 1 -22 18 -8 31 -24 32 -53 1z"/>
<path d="M3591 4323 c-7 -8 -11 -16 -8 -19 2 -2 10 2 17 11 17 20 9 27 -9 8z"/>
<path d="M3481 4311 c-12 -8 -13 -12 -1 -26 14 -17 32 -8 36 20 2 17 -14 19
-35 6z"/>
<path d="M3530 4300 c0 -5 5 -10 11 -10 5 0 7 5 4 10 -3 6 -8 10 -11 10 -2 0
-4 -4 -4 -10z"/>
<path d="M3617 4275 c-9 -9 -18 -15 -19 -14 -2 1 -20 -3 -40 -10 -34 -11 -37
-15 -31 -39 10 -43 27 -67 48 -69 11 -1 32 -4 46 -7 l27 -5 -4 76 c-2 41 -5
77 -7 80 -3 2 -12 -3 -20 -12z"/>
<path d="M3310 4204 c0 -8 5 -12 10 -9 6 3 10 10 10 16 0 5 -4 9 -10 9 -5 0
-10 -7 -10 -16z"/>
<path d="M3340 4210 c0 -5 7 -10 15 -10 8 0 15 5 15 10 0 6 -7 10 -15 10 -8 0
-15 -4 -15 -10z"/>
<path d="M3440 4171 c0 -6 4 -13 10 -16 6 -3 7 1 4 9 -7 18 -14 21 -14 7z"/>
<path d="M1534 4159 c-4 -7 -3 -9 4 -5 5 3 13 0 15 -6 4 -9 6 -10 6 -1 1 17
-16 25 -25 12z"/>
<path d="M4076 4121 c-3 -5 1 -11 9 -15 9 -3 15 0 15 9 0 16 -16 20 -24 6z"/>
<path d="M3130 4080 c0 -5 5 -10 10 -10 6 0 10 5 10 10 0 6 -4 10 -10 10 -5 0
-10 -4 -10 -10z"/>
<path d="M3373 4044 c-34 -15 11 -33 122 -49 22 -3 50 -12 62 -20 12 -8 26
-15 30 -15 4 0 1 5 -7 10 -12 8 -12 10 5 10 33 1 -5 20 -39 20 -17 0 -40 10
-52 21 -22 21 -95 35 -121 23z"/>
<path d="M3018 4033 c6 -2 18 -2 25 0 6 3 1 5 -13 5 -14 0 -19 -2 -12 -5z"/>
<path d="M3228 3839 c-2 -6 -16 -11 -31 -11 -43 0 -23 -11 33 -18 37 -5 47 -4
38 4 -7 6 -18 17 -24 24 -9 10 -13 10 -16 1z"/>
<path d="M3697 3673 c-8 -13 2 -43 14 -43 10 0 10 8 0 34 -5 12 -10 16 -14 9z"/>
<path d="M3050 3560 c-8 -5 -10 -10 -5 -10 6 0 17 5 25 10 8 5 11 10 5 10 -5
0 -17 -5 -25 -10z"/>
<path d="M7680 4570 c0 -16 27 -23 56 -16 33 9 29 13 -18 20 -23 4 -38 2 -38
-4z"/>
<path d="M6949 4311 c-16 -19 -23 -34 -18 -43 4 -7 10 -10 12 -8 6 6 37 80 34
80 -2 0 -14 -13 -28 -29z"/>
<path d="M6873 4230 c-13 -5 -23 -12 -23 -15 0 -10 27 -5 46 10 21 16 11 18
-23 5z"/>
<path d="M6696 4173 c-28 -7 -126 -72 -126 -83 0 -17 74 -17 127 1 36 11 103
64 103 80 0 9 -70 10 -104 2z"/>
<path d="M6408 4093 c7 -3 16 -2 19 1 4 3 -2 6 -13 5 -11 0 -14 -3 -6 -6z"/>
<path d="M6530 3744 c-6 -14 -10 -28 -10 -32 0 -4 -14 -43 -31 -87 -28 -72
-63 -120 -80 -109 -11 6 -49 -92 -49 -127 0 -27 2 -30 15 -19 12 10 15 9 15
-6 0 -11 5 -26 10 -34 9 -13 12 -13 24 3 8 10 19 16 26 15 12 -3 24 12 35 47
6 19 7 19 17 2 9 -18 11 -18 29 -1 10 9 19 25 19 36 0 10 5 18 10 18 6 0 10
-8 10 -17 1 -16 2 -16 10 -3 10 19 8 140 -3 133 -4 -2 -20 2 -36 10 -25 13
-31 13 -35 1 -3 -8 -1 -14 4 -14 6 0 10 -14 10 -32 0 -20 -4 -28 -9 -23 -18
18 -21 67 -6 89 8 11 15 16 16 11 1 -6 4 1 8 15 5 14 4 33 -1 42 -5 10 -4 19
2 23 6 4 8 10 5 14 -2 5 0 22 5 40 10 37 3 41 -10 5z m-10 -104 c0 -11 -4 -20
-9 -20 -5 0 -7 9 -4 20 3 11 7 20 9 20 2 0 4 -9 4 -20z m52 -115 c3 -15 1 -25
-6 -25 -6 0 -12 11 -12 25 -2 32 12 32 18 0z"/>
<path d="M5526 4250 c-19 -6 -19 -7 -1 -13 20 -8 29 -4 24 11 -2 5 -13 6 -23
2z"/>
<path d="M5561 4236 c-20 -24 -9 -39 14 -22 15 11 17 18 9 26 -8 8 -14 7 -23
-4z"/>
<path d="M6030 4226 c7 -7 13 -7 20 0 6 6 3 10 -10 10 -13 0 -16 -4 -10 -10z"/>
<path d="M5440 4130 c0 -5 4 -10 9 -10 6 0 13 5 16 10 3 6 -1 10 -9 10 -9 0
-16 -4 -16 -10z"/>
<path d="M5760 4070 c-9 -6 -10 -10 -3 -10 6 0 15 5 18 10 8 12 4 12 -15 0z"/>
<path d="M5656 4041 c-3 -5 1 -11 9 -14 9 -4 12 -1 8 9 -6 16 -10 17 -17 5z"/>
<path d="M5270 3920 c0 -5 5 -10 11 -10 5 0 7 5 4 10 -3 6 -8 10 -11 10 -2 0
-4 -4 -4 -10z"/>
<path d="M5508 3903 c6 -2 18 -2 25 0 6 3 1 5 -13 5 -14 0 -19 -2 -12 -5z"/>
<path d="M7335 3809 c-11 -17 1 -21 15 -4 8 9 8 15 2 15 -6 0 -14 -5 -17 -11z"/>
<path d="M9690 3645 c35 -20 57 -20 40 0 -7 8 -24 15 -39 15 l-26 -1 25 -14z"/>
<path d="M9490 3501 c0 -27 19 -36 37 -18 18 18 9 37 -18 37 -12 0 -19 -7 -19
-19z"/>
<path d="M1936 3781 c-3 -5 1 -11 9 -15 9 -3 15 0 15 9 0 16 -16 20 -24 6z"/>
<path d="M1010 3230 c0 -5 5 -10 11 -10 5 0 7 5 4 10 -3 6 -8 10 -11 10 -2 0
-4 -4 -4 -10z"/>
<path d="M1435 3470 c-3 -5 -1 -10 4 -10 6 0 11 5 11 10 0 6 -2 10 -4 10 -3 0
-8 -4 -11 -10z"/>
<path d="M1450 3330 c-13 -9 -13 -11 0 -20 27 -17 42 -12 30 10 -12 23 -11 23
-30 10z"/>
<path d="M4306 3542 c-3 -6 -1 -14 5 -17 14 -9 20 -2 10 14 -6 8 -11 9 -15 3z"/>
<path d="M670 3177 c0 -19 16 -31 24 -18 3 5 -1 14 -9 21 -12 10 -15 10 -15
-3z"/>
<path d="M620 2901 c0 -6 4 -13 10 -16 6 -3 7 1 4 9 -7 18 -14 21 -14 7z"/>
<path d="M497 3490 c-3 -11 -1 -20 4 -20 5 0 9 9 9 20 0 11 -2 20 -4 20 -2 0
-6 -9 -9 -20z"/>
<path d="M2255 3600 c-3 -5 -1 -10 4 -10 6 0 11 5 11 10 0 6 -2 10 -4 10 -3 0
-8 -4 -11 -10z"/>
<path d="M1745 3419 c-10 -30 -2 -32 12 -3 6 13 7 24 3 24 -5 0 -12 -9 -15
-21z"/>
<path d="M2795 3160 c-3 -6 1 -7 9 -4 18 7 21 14 7 14 -6 0 -13 -4 -16 -10z"/>
<path d="M1210 2850 c0 -6 19 -10 42 -10 23 0 38 3 34 7 -10 11 -76 13 -76 3z"/>
<path d="M850 1970 c-8 -5 -10 -10 -5 -10 6 0 17 5 25 10 8 5 11 10 5 10 -5 0
-17 -5 -25 -10z"/>
<path d="M1879 1803 c-13 -16 -12 -17 4 -4 9 7 17 15 17 17 0 8 -8 3 -21 -13z"/>
<path d="M2182 1310 c-20 -41 -17 -45 26 -34 17 5 21 11 17 25 -6 18 3 24 30
20 6 -1 1 6 -9 14 -30 23 -42 18 -64 -25z"/>
<path d="M2285 1322 c-5 -4 -11 -14 -13 -22 -3 -11 2 -10 17 4 12 11 21 21 21
23 0 5 -15 3 -25 -5z"/>
<path d="M1820 1252 c0 -11 9 -27 20 -37 24 -22 25 -14 5 25 -18 34 -25 38
-25 12z"/>
<path d="M2412 1240 c-43 -10 -56 -23 -48 -48 6 -17 13 -20 44 -15 20 3 38 6
38 7 7 5 14 66 7 65 -4 -1 -23 -5 -41 -9z"/>
<path d="M2045 1200 c-3 -5 0 -10 8 -10 8 0 21 -10 30 -22 l15 -23 24 23 c14
14 17 21 7 17 -9 -3 -22 1 -29 10 -14 17 -46 20 -55 5z"/>
<path d="M2316 1201 c-3 -5 1 -11 9 -15 15 -6 29 7 18 18 -9 9 -21 8 -27 -3z"/>
<path d="M2160 1155 c0 -15 -9 -29 -22 -36 -19 -10 -20 -12 -4 -21 11 -6 28
-6 48 1 17 6 43 11 58 11 18 0 33 8 44 25 20 31 20 34 -1 34 -10 0 -42 2 -70
5 -51 5 -53 5 -53 -19z"/>
<path d="M1975 1081 c-6 -11 42 -27 52 -17 8 8 3 12 -24 20 -12 4 -24 2 -28
-3z"/>
<path d="M1428 1273 c7 -3 16 -2 19 1 4 3 -2 6 -13 5 -11 0 -14 -3 -6 -6z"/>
</g>
</svg>
